<svg width="325" height="12" viewBox="0 0 325 12" fill="none" xmlns="http://www.w3.org/2000/svg">
<path d="M6.71566 2.33368C6.76689 2.45881 6.87133 2.81543 7.02898 3.40355C7.09992 3.67049 7.13736 3.95412 7.1413 4.25443H6.60334C6.22499 3.68717 5.83482 3.2805 5.43283 3.03441C5.03083 2.78415 4.58154 2.65902 4.08496 2.65902C3.47409 2.65902 2.98145 2.91137 2.60705 3.41606C2.09864 4.1001 1.84444 5.05318 1.84444 6.27529C1.84444 6.98436 1.88779 7.48905 1.9745 7.78936C2.11638 8.27737 2.2957 8.6757 2.51246 8.98436C2.67799 9.21794 2.89475 9.40355 3.16274 9.54119C3.50956 9.72888 3.88003 9.82273 4.27414 9.82273C4.70766 9.82273 5.12542 9.68092 5.52741 9.39729C5.93335 9.10949 6.32155 8.68196 6.69201 8.1147C6.83783 8.08551 7.02898 8.06882 7.26544 8.06465C7.24968 8.22315 7.22406 8.3879 7.18859 8.55892C7.17677 8.62565 7.13144 8.89051 7.05262 9.35349L6.99942 9.54119L6.91665 9.83525C6.67625 10.0313 6.33731 10.1794 5.89985 10.2795C5.46632 10.3754 4.9323 10.4234 4.29778 10.4234C3.81303 10.4234 3.35389 10.3754 2.92037 10.2795C2.49078 10.1835 2.12229 10.0313 1.81488 9.82273C1.3656 9.52242 1.01287 9.19708 0.756694 8.84671C0.500521 8.49635 0.309377 8.1147 0.183262 7.70177C0.0610873 7.28884 0 6.82586 0 6.31283C0 5.06986 0.386229 4.0438 1.15869 3.23462C1.93509 2.42544 2.92431 2.02086 4.12635 2.02086C4.61504 2.02086 5.07418 2.04797 5.50377 2.10219C5.93729 2.15224 6.34125 2.22941 6.71566 2.33368Z" fill="white"/>
<path d="M7.50191 10.3045L7.51373 9.87904C7.58861 9.85401 7.72064 9.82273 7.90981 9.78519C8.21328 9.72263 8.39654 9.66632 8.4596 9.61627C8.5266 9.56621 8.60739 9.44526 8.70198 9.25339L9.89614 5.94369L11.2972 2.05214C11.4273 2.05631 11.5514 2.05839 11.6696 2.05839H11.9357L11.9889 2.17101L13.0175 4.7487C13.25 5.2951 13.4589 5.8269 13.6441 6.34411C13.8294 6.85714 13.989 7.27633 14.123 7.60167C14.2018 7.79771 14.3102 8.09176 14.4481 8.48384C14.5191 8.69656 14.6274 8.9635 14.7733 9.28467C14.8521 9.45985 14.9112 9.56204 14.9506 9.59124C15.0216 9.65381 15.1358 9.69552 15.2935 9.71637C15.4551 9.73723 15.6285 9.78519 15.8137 9.86027C15.8334 9.99791 15.8433 10.1001 15.8433 10.1668C15.8433 10.196 15.8413 10.2419 15.8374 10.3045C15.5457 10.3045 15.2245 10.2899 14.8738 10.2607C14.523 10.2315 14.2077 10.2169 13.9279 10.2169C13.6165 10.2169 13.3919 10.2211 13.254 10.2294L12.249 10.2857L11.9593 10.2982C11.9593 10.1522 11.9652 10.0125 11.977 9.87904L12.6332 9.72888C12.8303 9.67466 12.9446 9.63295 12.9761 9.60375C13.0155 9.56204 13.0352 9.51408 13.0352 9.45985C13.0352 9.40563 13.0254 9.34932 13.0057 9.29093L12.7692 8.67779L12.3022 7.45151L10.0439 7.44526C9.96116 7.64546 9.78973 8.13556 9.52961 8.91554C9.45473 9.1366 9.41729 9.28676 9.41729 9.36601C9.41729 9.47445 9.44488 9.55162 9.50005 9.5975C9.5907 9.67675 9.76411 9.73306 10.0203 9.76642C10.0558 9.77477 10.1957 9.79771 10.44 9.83525C10.444 9.9854 10.4459 10.0897 10.4459 10.1481C10.4459 10.194 10.442 10.2419 10.4341 10.292C10.1897 10.292 9.60646 10.2565 8.68424 10.1856L8.44186 10.2294C8.15022 10.2795 7.87237 10.3045 7.60832 10.3045H7.50191ZM10.2804 6.78832C11.2026 6.80083 11.7465 6.80709 11.912 6.80709L12.0598 6.80083C11.9416 6.42961 11.7879 5.99791 11.5987 5.50574C11.4095 5.00938 11.2558 4.63191 11.1376 4.37331L10.2804 6.78832Z" fill="white"/>
<path d="M18.7341 8.03962C20.8308 5.79979 22.2023 4.2878 22.8486 3.50365C22.8486 3.19499 22.8388 3.01773 22.819 2.97185C22.7993 2.92179 22.7343 2.86966 22.624 2.81543C22.5136 2.75704 22.2988 2.68822 21.9796 2.60897C21.8259 2.57143 21.7254 2.54223 21.6781 2.52138C21.686 2.36705 21.7017 2.24818 21.7254 2.16475L21.8909 2.1585C22.222 2.1585 22.4427 2.16475 22.553 2.17727C22.8644 2.21898 23.1757 2.23983 23.4871 2.23983C23.9915 2.23983 24.4526 2.21689 24.8704 2.17101C25.0241 2.15433 25.1463 2.14599 25.2369 2.14599C25.3236 2.14599 25.4478 2.15224 25.6094 2.16475C25.6054 2.3316 25.5956 2.47967 25.5798 2.60897C25.1305 2.70907 24.8349 2.79041 24.693 2.85297C24.5551 2.91137 24.4861 3.01773 24.4861 3.17205V4.07925L24.4921 5.4682L24.4802 6.26277L24.498 7.38895V8.27737L24.5098 9.01564C24.5098 9.16163 24.5058 9.32847 24.498 9.51616C24.5807 9.54119 24.6576 9.56204 24.7285 9.57873C25.099 9.66215 25.3788 9.74765 25.568 9.83525L25.5857 10.2732L25.3315 10.2795C25.2645 10.2795 25.1877 10.2753 25.101 10.2669L24.6576 10.2419C24.3344 10.2044 23.8181 10.1856 23.1087 10.1856C22.7461 10.1856 22.4683 10.1981 22.2752 10.2231C22.0269 10.2523 21.8771 10.2669 21.8259 10.2669C21.7825 10.2669 21.7214 10.2544 21.6426 10.2294C21.6466 10.0292 21.6564 9.89364 21.6722 9.82273L22.0742 9.72263L22.3047 9.67883C22.553 9.63712 22.7146 9.60167 22.7895 9.57247C22.8407 9.26382 22.8663 8.52555 22.8663 7.35766L22.8604 5.51199L22.8723 4.34828L18.7341 8.85923C18.738 9.32638 18.7439 9.57039 18.7518 9.59124C18.7755 9.62044 18.8444 9.64129 18.9587 9.65381L19.343 9.71637C19.6819 9.78311 19.8711 9.83107 19.9105 9.86027C19.9223 9.9562 19.9282 10.0209 19.9282 10.0542C19.9282 10.1084 19.9204 10.1835 19.9046 10.2795L19.5381 10.2857C19.3883 10.2857 19.1775 10.2732 18.9055 10.2482L18.4621 10.2419L18.1607 10.2231L17.6227 10.2044C17.4493 10.2044 17.2384 10.2169 16.9901 10.2419C16.7379 10.2669 16.4009 10.2795 15.9792 10.2795C15.9792 10.1502 15.9911 10.0021 16.0147 9.83525C16.0502 9.8269 16.1329 9.81439 16.263 9.79771L16.5172 9.74765C16.7655 9.70177 16.9527 9.65172 17.0788 9.5975C17.1182 8.80918 17.1379 8.12096 17.1379 7.53285V6.70073L17.1557 4.58603C17.1557 3.94786 17.134 3.39937 17.0906 2.94056C17.0867 2.91554 17.0729 2.87174 17.0493 2.80918C17.0256 2.79666 16.9901 2.78832 16.9428 2.78415C16.9074 2.77998 16.8699 2.77372 16.8305 2.76538C16.6492 2.73201 16.4857 2.71116 16.3399 2.70282L16.2512 2.67779C16.1408 2.66528 16.06 2.64859 16.0088 2.62774C15.997 2.50678 15.9911 2.42961 15.9911 2.39625C15.9911 2.34619 16.0029 2.27737 16.0265 2.18978C16.1132 2.16893 16.2059 2.1585 16.3044 2.1585C16.5921 2.1585 16.9271 2.17727 17.3094 2.21481C17.6562 2.24818 17.9439 2.26486 18.1725 2.26486C18.4917 2.26486 18.7853 2.25026 19.0533 2.22106C19.3844 2.18352 19.5795 2.16475 19.6386 2.16475C19.7134 2.16475 19.808 2.17518 19.9223 2.19604L19.9282 2.38373C19.9282 2.45047 19.9204 2.5318 19.9046 2.62774L18.8641 2.80292C18.805 2.81126 18.7696 2.90928 18.7577 3.09698C18.7459 3.28467 18.74 3.50782 18.74 3.76642L18.7459 4.06048L18.74 4.62357L18.7459 4.9489L18.7282 5.37435C18.7282 5.42857 18.7321 5.52659 18.74 5.6684C18.7479 5.8561 18.7518 6.04171 18.7518 6.22523C18.7518 6.37539 18.7479 6.52555 18.74 6.6757L18.7223 7.00104L18.7341 8.03962ZM18.9233 0.625652C18.9233 0.450469 18.9804 0.302398 19.0947 0.181439C19.2129 0.0604797 19.3568 0 19.5262 0C19.6681 0 19.7864 0.0396246 19.8809 0.118874C19.9755 0.198123 20.0997 0.385819 20.2534 0.68196C20.4623 1.08238 20.6928 1.28259 20.945 1.28259C21.1973 1.28259 21.4259 1.08238 21.6308 0.68196C21.7648 0.423358 21.8811 0.24609 21.9796 0.150156C22.0821 0.0500521 22.2121 0 22.3698 0C22.5353 0 22.6732 0.0625652 22.7836 0.187696C22.8939 0.308655 22.9491 0.45464 22.9491 0.625652C22.9491 0.963504 22.754 1.22211 22.3638 1.40146C21.9737 1.57664 21.5067 1.66423 20.9628 1.66423C20.3716 1.66423 19.8829 1.57456 19.4967 1.3952C19.1144 1.21585 18.9233 0.959333 18.9233 0.625652Z" fill="white"/>
<path d="M26.7089 1.85193H27.0755C27.103 1.89781 27.1227 1.93118 27.1346 1.95203C27.2449 2.15224 27.3297 2.28363 27.3888 2.34619C27.44 2.36288 27.71 2.37122 28.1987 2.37122C28.5021 2.37122 28.7721 2.36913 29.0086 2.36496L29.1268 2.34619L29.8421 2.33994L31.1782 2.35245H33.0049L33.3536 2.29614C33.4049 2.2586 33.4601 2.1585 33.5192 1.99583C33.5349 1.95829 33.5566 1.90615 33.5842 1.83942L33.8443 1.83316C33.8837 1.83316 33.9428 1.83525 34.0217 1.83942C34.0256 2.12722 34.0276 2.561 34.0276 3.14077L34.0335 3.6976L34.0276 4.01668C34.0276 4.12513 34.0197 4.21898 34.0039 4.29823C33.8423 4.35245 33.7005 4.38582 33.5783 4.39833C33.4758 4.23566 33.3635 4 33.2413 3.69135C33.1231 3.38269 33.0482 3.21168 33.0167 3.17831C32.9694 3.12409 32.9142 3.08863 32.8512 3.07195C32.7566 3.0511 32.3388 3.04067 31.5979 3.04067C31.4875 3.04067 31.3496 3.04901 31.1841 3.06569C31.1604 3.22836 31.1486 3.36184 31.1486 3.46611L31.1545 4.30448V6.1439L31.1782 8.12722L31.1722 8.94056C31.1722 9.22836 31.1959 9.44526 31.2432 9.59124C31.3062 9.62044 31.4225 9.64755 31.592 9.67258C31.6235 9.67675 31.7693 9.71011 32.0294 9.77268C32.1477 9.80188 32.2521 9.83525 32.3428 9.87278C32.3625 10.0229 32.3723 10.1147 32.3723 10.1481C32.3723 10.1856 32.3664 10.2398 32.3546 10.3107C32.2679 10.3149 32.1969 10.317 32.1418 10.317C31.7358 10.317 31.391 10.3024 31.1072 10.2732C30.8235 10.2398 30.3091 10.2231 29.5643 10.2231C29.446 10.2231 29.0992 10.2482 28.5238 10.2982C28.2992 10.3149 28.1533 10.3233 28.0863 10.3233C28.0824 10.2607 28.0785 10.2127 28.0745 10.1794L28.0686 10.0355V9.9854C28.1553 9.86444 28.3189 9.77477 28.5593 9.71637C28.9692 9.6121 29.2529 9.51825 29.4106 9.43483C29.45 9.35558 29.4736 9.2513 29.4815 9.122C29.5091 8.62148 29.5229 7.82482 29.5229 6.73201L29.4933 4.36705C29.4933 3.71637 29.4815 3.32221 29.4579 3.18457C29.45 3.14703 29.4362 3.11992 29.4165 3.10323C29.3968 3.08238 29.3692 3.06986 29.3337 3.06569C29.2115 3.04901 28.8135 3.04067 28.1396 3.04067C27.7691 3.04067 27.5208 3.07821 27.3947 3.15328C27.2252 3.25756 26.971 3.54119 26.6321 4.00417C26.5335 4.13764 26.4606 4.20438 26.4133 4.20438C26.2321 4.10428 26.1158 4.02294 26.0646 3.96038C26.1867 3.68926 26.3562 3.14703 26.573 2.33368C26.636 2.09593 26.6813 1.93535 26.7089 1.85193Z" fill="white"/>
<path d="M41.8901 5.53702C42.2409 5.65381 42.5502 5.85819 42.8182 6.15016C43.0862 6.44213 43.4114 6.94473 43.7937 7.65798C44.2429 8.49635 44.5819 9.03441 44.8105 9.27216C45.043 9.50574 45.3524 9.68092 45.7386 9.79771C45.8805 9.83942 45.9711 9.87278 46.0105 9.89781C46.0184 9.97289 46.0224 10.0313 46.0224 10.073C46.0224 10.123 46.0145 10.2002 45.9987 10.3045L45.3484 10.292L44.4558 10.2669C44.2311 10.2669 43.9355 10.2815 43.569 10.3107C43.3207 9.74348 42.9443 9.01564 42.4399 8.12722C41.9354 7.23462 41.565 6.7049 41.3285 6.53806C41.092 6.36705 40.8496 6.28154 40.6014 6.28154C40.5856 6.43587 40.5777 6.5756 40.5777 6.70073L40.6073 7.56413C40.6151 7.73931 40.6191 7.90615 40.6191 8.06465L40.6073 8.81543L40.6191 9.03441L40.6309 9.46611C40.7097 9.56204 40.9068 9.65381 41.2221 9.7414C41.3994 9.79145 41.5492 9.85819 41.6714 9.94161C41.6832 10.025 41.6891 10.0876 41.6891 10.1293C41.6891 10.1627 41.6852 10.2148 41.6773 10.2857C41.4999 10.2941 41.3561 10.2982 41.2457 10.2982C40.9541 10.2982 40.6349 10.2857 40.288 10.2607L39.892 10.2357L39.3599 10.2544L38.3135 10.2482L37.7519 10.2669L37.746 9.91658C37.7815 9.88738 37.9667 9.80605 38.3017 9.67258L38.4554 9.60375C38.6288 9.52033 38.7451 9.47028 38.8042 9.4536C38.883 9.40355 38.9343 9.33472 38.9579 9.24713C38.9816 9.15537 38.9934 8.83003 38.9934 8.27112L38.9756 7.67049L38.9816 6.34411L38.9756 5.40563L38.9875 5.13034L38.9756 4.32325L38.9934 4.00417C38.9934 3.52033 38.9638 3.19291 38.9047 3.0219C38.7825 2.91345 38.5461 2.81335 38.1953 2.72159C37.9864 2.66736 37.8445 2.61105 37.7697 2.55266L37.811 2.16475C37.8859 2.15224 37.9647 2.14599 38.0475 2.14599C38.3352 2.14599 38.6209 2.16684 38.9047 2.20855C39.1924 2.24609 39.5609 2.26486 40.0102 2.26486L40.2644 2.25235L40.9738 2.22732C41.0802 2.22315 41.226 2.21272 41.4113 2.19604L41.6182 2.17727L41.766 2.18352C41.7778 2.21689 41.7837 2.26277 41.7837 2.32117C41.7837 2.46298 41.7778 2.55474 41.766 2.59645C41.5255 2.69239 41.2773 2.7633 41.0211 2.80918C40.824 2.84672 40.7019 2.88217 40.6546 2.91554C40.6073 2.94891 40.5836 3.02398 40.5836 3.14077C40.5836 3.55787 40.5876 3.83316 40.5954 3.96663L40.6073 4.49844L40.5954 4.89885V5.37435L40.5895 5.91241C40.8221 5.83316 41.0487 5.71011 41.2694 5.54327C41.4901 5.37643 41.7679 4.99687 42.1029 4.40459C42.6783 3.38269 43.1611 2.7341 43.5513 2.45881C43.9454 2.17935 44.3395 2.03962 44.7336 2.03962C45.1277 2.03962 45.4272 2.14599 45.6322 2.35871C45.8411 2.56726 45.9455 2.81752 45.9455 3.10949C45.9455 3.32638 45.8805 3.51825 45.7504 3.68509C45.6243 3.85193 45.4489 3.93535 45.2243 3.93535C45.0509 3.93535 44.9129 3.89781 44.8105 3.82273C44.7119 3.74348 44.5898 3.59333 44.4439 3.37226C44.3021 3.14703 44.1602 3.03441 44.0183 3.03441C43.6872 3.03441 43.2596 3.50991 42.7355 4.4609C42.4281 5.01147 42.1463 5.37018 41.8901 5.53702Z" fill="white"/>
<path d="M46.5189 6.15016C46.5189 5.63295 46.6135 5.11366 46.8027 4.59228C46.9406 4.21689 47.1337 3.87278 47.382 3.55996C47.6303 3.24713 47.9417 2.96976 48.3161 2.72784C48.6905 2.48175 49.0728 2.30657 49.4629 2.20229C49.8531 2.09385 50.2886 2.03962 50.7694 2.03962C51.5892 2.03962 52.3005 2.20229 52.9035 2.52763C53.5065 2.85297 53.9814 3.29301 54.3283 3.84776C54.7775 4.56934 55.0022 5.32638 55.0022 6.11887C55.0022 7.29927 54.6219 8.31074 53.8612 9.15329C53.1045 9.99583 52.0503 10.4171 50.6985 10.4171C50.3635 10.4171 50.0502 10.3942 49.7585 10.3483C49.5378 10.3149 49.3447 10.269 49.1792 10.2106C48.8797 10.1064 48.7122 10.0459 48.6767 10.0292C48.2471 9.77059 47.9023 9.50574 47.6422 9.23462C47.382 8.9635 47.1613 8.65693 46.98 8.31491C46.8815 8.12304 46.7692 7.77685 46.6431 7.27633C46.5603 6.95516 46.5189 6.57977 46.5189 6.15016ZM50.5448 2.65902C50.2019 2.65902 49.8984 2.74453 49.6344 2.91554C49.3703 3.08238 49.1713 3.26799 49.0373 3.47237C48.8127 3.81856 48.653 4.19812 48.5585 4.61105C48.4639 5.01981 48.4166 5.51825 48.4166 6.10636C48.4166 6.46507 48.4304 6.72159 48.458 6.87591C48.4658 6.92596 48.4777 7.01147 48.4934 7.13243C48.5289 7.44108 48.5703 7.66632 48.6176 7.80813C48.787 8.33785 48.9072 8.66528 48.9782 8.79041C49.0964 9.00313 49.2718 9.21376 49.5043 9.42231C49.6226 9.53076 49.794 9.63087 50.0186 9.72263C50.2433 9.81022 50.4679 9.85401 50.6926 9.85401C51.1182 9.85401 51.5123 9.74974 51.8749 9.54119C52.2414 9.32847 52.535 8.96976 52.7557 8.46507C52.9764 7.96038 53.0868 7.30344 53.0868 6.49427C53.0868 6.16058 53.0651 5.70803 53.0218 5.1366L52.9922 5.01773C52.9804 4.98436 52.9607 4.89885 52.9331 4.76121C52.7873 4.07716 52.5075 3.55579 52.0936 3.19708C51.6838 2.83837 51.1675 2.65902 50.5448 2.65902Z" fill="white"/>
<path d="M55.954 10.2795C55.954 10.1543 55.9658 10.0063 55.9894 9.83525L56.7284 9.6976C56.819 9.67675 56.9274 9.64338 57.0535 9.5975L57.1304 8.03337C57.1146 7.47028 57.1067 7.04901 57.1067 6.76955L57.1126 6.6194C57.1245 6.44838 57.1304 6.01877 57.1304 5.33055L57.1186 5.14911L57.1304 4.62357L57.1245 4.07925V3.81022C57.1245 3.5683 57.1067 3.28467 57.0713 2.95933C57.0673 2.93014 57.0516 2.88008 57.024 2.80918C56.9924 2.79666 56.957 2.78832 56.9176 2.78415C56.8821 2.77998 56.8447 2.77372 56.8052 2.76538C56.6515 2.73618 56.488 2.71533 56.3146 2.70282L56.2259 2.67779C56.1195 2.66528 56.0387 2.64859 55.9835 2.62774C55.9717 2.50678 55.9658 2.42961 55.9658 2.39625C55.9658 2.34619 55.9776 2.27737 56.0013 2.18978C56.0801 2.1731 56.1904 2.16475 56.3323 2.16475C56.4742 2.16475 56.5727 2.16267 56.6279 2.1585C57.1087 2.21272 57.4654 2.24192 57.6979 2.24609C57.8043 2.24609 57.9107 2.25026 58.0171 2.2586C58.1275 2.26277 58.224 2.26486 58.3068 2.26486C58.4369 2.26486 58.7541 2.244 59.2586 2.20229C59.3413 2.18144 59.432 2.17101 59.5305 2.17101C59.6763 2.17101 59.7985 2.17935 59.897 2.19604C59.901 2.28363 59.903 2.34619 59.903 2.38373C59.903 2.45047 59.8951 2.5318 59.8793 2.62774L58.8389 2.80292C58.7522 2.84463 58.7088 2.90511 58.7088 2.98436L58.7265 3.21585L58.7324 3.31595L58.7265 3.59124L58.7147 3.80396V3.85401C58.7187 3.8999 58.7206 3.93952 58.7206 3.97289L58.7147 4.76747C58.7187 4.84254 58.7206 4.89885 58.7206 4.93639C58.7206 4.95725 58.7167 5.02398 58.7088 5.1366C58.7049 5.20334 58.7029 5.27216 58.7029 5.34307C58.7029 5.40563 58.7088 5.5537 58.7206 5.78728C58.831 5.80813 58.9236 5.82065 58.9985 5.82482L59.8734 5.84359H60.299L61.3631 5.84984L62.3977 5.81856C62.5317 5.81856 62.6736 5.80396 62.8233 5.77477C62.8312 5.63295 62.8371 5.28467 62.8411 4.72993L62.8529 4.44838L62.8174 3.38478L62.776 2.94682C62.7642 2.91762 62.7366 2.89051 62.6933 2.86548C62.5553 2.78206 62.2794 2.68822 61.8656 2.58394C61.7907 2.56726 61.7198 2.5464 61.6528 2.52138C61.6607 2.37539 61.6765 2.25652 61.7001 2.16475C61.7868 2.16058 61.84 2.1585 61.8597 2.1585L62.4332 2.16475C62.7997 2.21481 63.1721 2.23983 63.5505 2.23983C63.6372 2.23983 63.7061 2.23775 63.7574 2.23358L64.5259 2.20855C64.5968 2.20438 64.6658 2.20021 64.7328 2.19604C64.8747 2.16267 65.0205 2.14599 65.1703 2.14599C65.2845 2.14599 65.4225 2.15224 65.5841 2.16475C65.5801 2.32742 65.5703 2.4755 65.5545 2.60897C65.1919 2.68822 64.9535 2.74661 64.8392 2.78415C64.7289 2.81752 64.6165 2.86548 64.5022 2.92805L64.4668 3.05318V3.15954L64.4727 3.32221L64.4668 3.40355C64.4589 3.49114 64.4549 3.55787 64.4549 3.60375V3.76017C64.4589 3.94786 64.4609 4.05214 64.4609 4.07299V4.86757L64.4668 5.4682L64.4549 6.26277C64.451 6.4463 64.4569 6.82169 64.4727 7.38895V8.27737L64.4845 9.01564C64.4845 9.15329 64.4806 9.32013 64.4727 9.51616C64.5554 9.54119 64.6323 9.56204 64.7032 9.57873C65.0737 9.66215 65.3535 9.74765 65.5427 9.83525L65.5604 10.2732C65.4028 10.2774 65.3102 10.2795 65.2826 10.2795C65.0934 10.2795 64.8766 10.2669 64.6323 10.2419C64.3091 10.2044 63.7889 10.1856 63.0716 10.1856C62.7484 10.1856 62.3307 10.2127 61.8183 10.2669C61.7632 10.2669 61.6962 10.2544 61.6173 10.2294C61.6213 10.0375 61.6311 9.90198 61.6469 9.82273L62.1021 9.71011L62.5809 9.62878C62.6282 9.61627 62.6893 9.5975 62.7642 9.57247C62.8076 9.23462 62.8312 8.67362 62.8351 7.88947L62.8411 7.35766C62.8174 7.1366 62.8056 6.87174 62.8056 6.56309C62.6598 6.55057 62.5021 6.54223 62.3327 6.53806L59.5896 6.50678L59.5364 6.50052L59.4951 6.49427C59.4675 6.49427 59.4359 6.49635 59.4005 6.50052C59.298 6.50469 59.2113 6.50678 59.1404 6.50678H58.9748C58.8999 6.50678 58.8152 6.52138 58.7206 6.55057L58.697 7.01981V7.10115C58.7049 7.21376 58.7088 7.28676 58.7088 7.32013V9.25965C58.7088 9.36809 58.7147 9.47862 58.7265 9.59124L58.7857 9.62878L59.6547 9.77268C59.698 9.78936 59.7315 9.79979 59.7552 9.80396C59.8064 9.81648 59.8498 9.83525 59.8852 9.86027C59.897 9.9562 59.903 10.0209 59.903 10.0542C59.903 10.1084 59.8951 10.1835 59.8793 10.2795C59.7374 10.2836 59.6172 10.2857 59.5187 10.2857C59.432 10.2857 59.3512 10.2836 59.2763 10.2795C59.2408 10.2795 59.2073 10.2774 59.1758 10.2732L58.3423 10.2357C58.1452 10.2148 57.8693 10.2044 57.5146 10.2044L57.3905 10.2106C57.225 10.219 57.1284 10.2252 57.1008 10.2294C56.8565 10.2628 56.4742 10.2795 55.954 10.2795Z" fill="white"/>
<path d="M67.5408 2.91554C67.4581 2.88634 67.3812 2.86548 67.3103 2.85297C66.9398 2.76955 66.66 2.68405 66.4708 2.59645L66.4531 2.15224H66.7368L66.9438 2.1585L67.3812 2.18978C67.7044 2.22732 68.2207 2.24609 68.9301 2.24609C69.1626 2.24609 69.3774 2.23775 69.5744 2.22106L70.1952 2.16475C70.2543 2.16475 70.3213 2.17518 70.3962 2.19604C70.3962 2.39625 70.3883 2.53389 70.3725 2.60897L69.9646 2.70907L69.7341 2.74661C69.4858 2.78832 69.3242 2.82377 69.2493 2.85297C69.1981 3.06152 69.1725 4.35871 69.1725 6.74453L69.2079 9.4536C69.334 9.47028 69.4917 9.47862 69.6809 9.47862L72.4239 9.51616L72.613 9.52242C73.0111 9.52242 73.2397 9.50574 73.2988 9.47237L73.3224 8.32742L73.3106 5.11157L73.3047 3.30344C73.3047 3.06986 73.2988 2.91345 73.287 2.8342C73.2633 2.80918 73.1944 2.79041 73.0801 2.77789L72.814 2.7341C72.6958 2.71741 72.5855 2.69656 72.483 2.67153L72.2643 2.62774C72.2091 2.61522 72.1657 2.59645 72.1342 2.57143C72.1184 2.4755 72.1106 2.41084 72.1106 2.37748C72.1106 2.31908 72.1184 2.244 72.1342 2.15224L72.5007 2.14599C72.6505 2.14599 72.8633 2.15641 73.1392 2.17727L74.5048 2.22732C74.6585 2.22732 74.8398 2.21064 75.0487 2.17727L75.427 2.15224L76.0596 2.14599C76.0596 2.27946 76.0477 2.42961 76.0241 2.59645L75.5275 2.68405C75.2792 2.72993 75.092 2.77789 74.9659 2.82795L74.8831 4.39208L74.9127 5.66215L74.9009 6.05631L74.8831 7.80813L74.895 8.34619V8.61522C74.895 9.07821 74.9363 9.3806 75.0191 9.52242C75.1019 9.66423 75.2674 9.77268 75.5157 9.84776C75.6694 9.89781 75.7659 9.96663 75.8054 10.0542C75.8448 10.1376 75.8684 10.3983 75.8763 10.8363L75.9177 11.4682C75.9295 11.6267 75.9374 11.7914 75.9413 11.9625C75.8586 11.9833 75.7462 11.9958 75.6044 12C75.5334 11.8665 75.4625 11.7164 75.3915 11.5495C75.2102 11.1116 75.0506 10.8217 74.9127 10.6799C74.7787 10.5422 74.6151 10.4463 74.422 10.3921C74.2289 10.342 73.6042 10.2941 72.548 10.2482C71.4918 10.2023 70.4316 10.1794 69.3675 10.1794C68.3192 10.1794 67.5802 10.2044 67.1507 10.2544C66.9812 10.2753 66.863 10.2857 66.796 10.2857C66.7211 10.2857 66.5989 10.2774 66.4294 10.2607C66.4334 10.098 66.4432 9.94995 66.459 9.81648C66.9911 9.70803 67.3418 9.60375 67.5113 9.50365C67.5467 9.42023 67.5645 9.18457 67.5645 8.79666C67.5645 8.76747 67.5625 8.72576 67.5586 8.67153L67.5527 8.35871L67.5467 6.9635L67.5527 5.8561L67.5408 5.0365L67.5467 4.14807L67.529 3.41606C67.529 3.27007 67.533 3.10323 67.5408 2.91554Z" fill="white"/>
<path d="M76.769 2.20229C76.9936 2.21481 77.1887 2.23358 77.3542 2.2586C77.6656 2.30448 78.0262 2.32742 78.436 2.32742C78.5779 2.32742 78.9425 2.31491 79.5297 2.28989C80.4086 2.25235 81.2027 2.23358 81.9121 2.23358L82.9821 2.22106C83.2225 2.22106 83.5772 2.25235 84.0462 2.31491C84.1172 2.39833 84.1526 2.51095 84.1526 2.65276V3.94161L84.1645 4.19812C84.1645 4.22315 84.1625 4.26069 84.1585 4.31074L83.9162 4.32325C83.8846 4.32325 83.8176 4.31908 83.7152 4.31074C83.6797 4.22732 83.6324 4.10428 83.5733 3.94161L83.3368 3.49739C83.2462 3.3097 83.1201 3.11783 82.9585 2.92179C82.8599 2.8926 82.7338 2.87591 82.5801 2.87174C82.5407 2.86757 82.4205 2.85714 82.2195 2.84046C81.853 2.80709 81.4589 2.79041 81.0372 2.79041C80.5564 2.79041 80.1268 2.79875 79.7484 2.81543C79.7366 2.91971 79.7307 3.33055 79.7307 4.04797L79.7425 5.09906V5.88738C79.841 5.8999 79.9258 5.90615 79.9967 5.90615C80.7022 5.90615 81.2047 5.89155 81.5042 5.86236C81.8037 5.83316 81.989 5.79353 82.0599 5.74348C82.1308 5.68926 82.1939 5.5975 82.2491 5.4682C82.2845 5.37643 82.3535 5.06986 82.456 4.54849L82.5328 4.54223L82.8757 4.54849C82.8915 4.91971 82.8994 5.20125 82.8994 5.39312C82.8994 5.83107 82.8954 6.11262 82.8875 6.23775C82.8836 6.36288 82.8816 6.4609 82.8816 6.5318C82.8816 6.64442 82.8875 6.82586 82.8994 7.07612C82.9112 7.32221 82.9171 7.50574 82.9171 7.62669V7.76434H82.4974C82.4816 7.6976 82.452 7.55996 82.4087 7.35141C82.3299 6.9635 82.2589 6.72159 82.1959 6.62565C82.1486 6.55057 82.0697 6.49427 81.9594 6.45673C81.8806 6.42753 81.5889 6.41293 81.0845 6.41293C80.4894 6.41293 80.042 6.42961 79.7425 6.46298C79.7386 6.57143 79.7366 6.64234 79.7366 6.6757C79.7366 7.17205 79.7445 7.58498 79.7603 7.91449L79.7484 9.2659C79.7484 9.4244 79.8016 9.53285 79.9081 9.59124C80.0696 9.67883 80.5642 9.72263 81.3919 9.72263C81.9397 9.72263 82.4047 9.67883 82.787 9.59124C83.0511 9.52868 83.2836 9.38895 83.4846 9.17205C83.7526 8.8926 83.9753 8.50052 84.1526 7.99583C84.2748 7.98332 84.3753 7.97706 84.4541 7.97706C84.4975 7.97706 84.5625 7.97915 84.6492 7.98332C84.6374 8.08759 84.6275 8.17518 84.6197 8.24609L84.5842 8.43379L84.3654 9.61627L84.259 10.3295C84.0029 10.342 83.7999 10.3483 83.6501 10.3483C83.4294 10.3483 82.8402 10.3274 81.8825 10.2857C81.2086 10.2565 80.3967 10.2419 79.4469 10.2419C78.974 10.2419 78.3927 10.2628 77.703 10.3045H77.4547L76.7394 10.3295V9.89781C76.8143 9.87696 76.964 9.85401 77.1887 9.82899C77.5986 9.77894 77.8823 9.7122 78.04 9.62878C78.0833 9.50782 78.105 9.35558 78.105 9.17205C78.105 9.10115 78.103 8.98019 78.0991 8.80918L78.105 8.61522L78.0873 6.25652L78.0932 5.54953L78.0636 4.54849L78.0695 3.8415L78.0163 3.06569C78.0163 3.04484 78.0124 3.00313 78.0045 2.94056C77.9651 2.89468 77.906 2.86548 77.8271 2.85297C77.7838 2.84463 77.7247 2.83212 77.6498 2.81543C77.4251 2.76538 77.2084 2.73618 76.9995 2.72784C76.9246 2.72367 76.8379 2.71533 76.7394 2.70282L76.769 2.20229Z" fill="white"/>
<path d="M85.4 2.62148L85.3941 2.14599L86.807 2.23983L87.4395 2.23358H87.6701C87.9105 2.23358 88.2869 2.21898 88.7992 2.18978C89.0908 2.16893 89.2741 2.1585 89.349 2.1585C89.8456 2.1585 90.22 2.1877 90.4722 2.24609C90.8584 2.32951 91.1639 2.46298 91.3885 2.64651C91.6171 2.83003 91.8122 3.09281 91.9738 3.43483C92.1393 3.77268 92.2221 4.08759 92.2221 4.37956C92.2221 5.10532 92.0053 5.69552 91.5718 6.15016C91.1422 6.60063 90.5983 6.82586 89.9402 6.82586C89.7116 6.82586 89.4928 6.79666 89.284 6.73827C89.079 6.67987 88.8859 6.59228 88.7046 6.4755C88.6849 6.35454 88.6751 6.1877 88.6751 5.97497C88.7696 5.98332 88.8544 5.98957 88.9293 5.99374C89.0081 5.99791 89.077 6 89.1362 6C89.4712 6 89.753 5.90198 89.9815 5.70594C90.285 5.45151 90.4367 5.03858 90.4367 4.46715C90.4367 4.05839 90.3697 3.72471 90.2357 3.46611C90.1057 3.20334 89.95 3.02607 89.7687 2.93431C89.5165 2.80918 89.2327 2.74661 88.9174 2.74661C88.6218 2.74661 88.411 2.79249 88.2849 2.88425C88.2534 2.93848 88.2297 2.99062 88.2139 3.04067L88.2553 5.98749L88.2435 6.23775L88.2612 6.50052C88.2652 6.55892 88.2672 6.64442 88.2672 6.75704V7.27007L88.2731 8.08968L88.2612 9.06569C88.2612 9.20334 88.2731 9.38895 88.2967 9.62252L89.4731 9.77894C89.4889 9.87904 89.4968 9.95829 89.4968 10.0167C89.4968 10.0792 89.4869 10.1668 89.4672 10.2795C89.3687 10.2961 89.2938 10.3045 89.2426 10.3045C89.1204 10.3045 88.8898 10.2899 88.5509 10.2607C88.212 10.2273 87.8257 10.2106 87.3922 10.2106C86.9035 10.2106 86.4385 10.244 85.9971 10.3107C85.9222 10.3233 85.804 10.3337 85.6424 10.342C85.6266 10.2211 85.6187 10.1314 85.6187 10.073C85.6187 10.0355 85.6227 9.97706 85.6305 9.89781L85.9912 9.77268C86.2394 9.69343 86.4542 9.5975 86.6355 9.48488C86.671 9.36392 86.6887 9.25339 86.6887 9.15329C86.6887 9.11157 86.6868 9.06361 86.6828 9.00939C86.6789 8.88008 86.6769 8.69864 86.6769 8.46507L86.6592 6.70699L86.5941 4.72367C86.5666 3.78102 86.5449 3.27216 86.5291 3.19708C86.5015 3.07612 86.4542 2.98227 86.3872 2.91554C86.3202 2.84463 86.2079 2.79458 86.0503 2.76538C85.7232 2.70699 85.5064 2.65902 85.4 2.62148Z" fill="white"/>
<path d="M93.1916 1.85193H93.5581C93.5857 1.89781 93.6054 1.93118 93.6172 1.95203C93.7276 2.15224 93.8123 2.28363 93.8714 2.34619C93.9226 2.36288 94.1926 2.37122 94.6813 2.37122C94.9848 2.37122 95.2547 2.36913 95.4912 2.36496L95.6094 2.34619L96.3248 2.33994L97.6608 2.35245H99.4875L99.8363 2.29614C99.8875 2.2586 99.9427 2.1585 100.002 1.99583C100.018 1.95829 100.039 1.90615 100.067 1.83942L100.327 1.83316C100.366 1.83316 100.425 1.83525 100.504 1.83942C100.508 2.12722 100.51 2.561 100.51 3.14077L100.516 3.6976L100.51 4.01668C100.51 4.12513 100.502 4.21898 100.487 4.29823C100.325 4.35245 100.183 4.38582 100.061 4.39833C99.9585 4.23566 99.8461 4 99.724 3.69135C99.6057 3.38269 99.5309 3.21168 99.4993 3.17831C99.452 3.12409 99.3969 3.08863 99.3338 3.07195C99.2392 3.0511 98.8214 3.04067 98.0805 3.04067C97.9702 3.04067 97.8322 3.04901 97.6667 3.06569C97.6431 3.22836 97.6312 3.36184 97.6312 3.46611L97.6371 4.30448V6.1439L97.6608 8.12722L97.6549 8.94056C97.6549 9.22836 97.6785 9.44526 97.7258 9.59124C97.7889 9.62044 97.9051 9.64755 98.0746 9.67258C98.1061 9.67675 98.252 9.71011 98.5121 9.77268C98.6303 9.80188 98.7347 9.83525 98.8254 9.87278C98.8451 10.0229 98.8549 10.1147 98.8549 10.1481C98.8549 10.1856 98.849 10.2398 98.8372 10.3107C98.7505 10.3149 98.6796 10.317 98.6244 10.317C98.2185 10.317 97.8736 10.3024 97.5899 10.2732C97.3061 10.2398 96.7918 10.2231 96.0469 10.2231C95.9287 10.2231 95.5819 10.2482 95.0065 10.2982C94.7818 10.3149 94.636 10.3233 94.569 10.3233C94.565 10.2607 94.5611 10.2127 94.5572 10.1794L94.5513 10.0355V9.9854C94.638 9.86444 94.8015 9.77477 95.0419 9.71637C95.4518 9.6121 95.7356 9.51825 95.8932 9.43483C95.9326 9.35558 95.9563 9.2513 95.9641 9.122C95.9917 8.62148 96.0055 7.82482 96.0055 6.73201L95.976 4.36705C95.976 3.71637 95.9641 3.32221 95.9405 3.18457C95.9326 3.14703 95.9188 3.11992 95.8991 3.10323C95.8794 3.08238 95.8518 3.06986 95.8164 3.06569C95.6942 3.04901 95.2961 3.04067 94.6222 3.04067C94.2517 3.04067 94.0034 3.07821 93.8773 3.15328C93.7079 3.25756 93.4537 3.54119 93.1147 4.00417C93.0162 4.13764 92.9433 4.20438 92.896 4.20438C92.7147 4.10428 92.5984 4.02294 92.5472 3.96038C92.6694 3.68926 92.8388 3.14703 93.0556 2.33368C93.1187 2.09593 93.164 1.93535 93.1916 1.85193Z" fill="white"/>
<path d="M101.261 10.2795C101.261 10.1543 101.273 10.0063 101.296 9.83525L102.035 9.6976C102.126 9.67675 102.234 9.64338 102.361 9.5975L102.437 8.03337C102.422 7.47028 102.414 7.04901 102.414 6.76955L102.42 6.6194C102.432 6.44838 102.437 6.01877 102.437 5.33055L102.426 5.14911L102.437 4.62357L102.432 4.07925V3.81022C102.432 3.5683 102.414 3.28467 102.378 2.95933C102.374 2.93014 102.359 2.88008 102.331 2.80918C102.299 2.79666 102.264 2.78832 102.225 2.78415C102.189 2.77998 102.152 2.77372 102.112 2.76538C101.959 2.73618 101.795 2.71533 101.622 2.70282L101.533 2.67779C101.427 2.66528 101.346 2.64859 101.291 2.62774C101.279 2.50678 101.273 2.42961 101.273 2.39625C101.273 2.34619 101.285 2.27737 101.308 2.18978C101.387 2.1731 101.497 2.16475 101.639 2.16475C101.781 2.16475 101.88 2.16267 101.935 2.1585C102.416 2.21272 102.772 2.24192 103.005 2.24609C103.111 2.24609 103.218 2.25026 103.324 2.2586C103.435 2.26277 103.531 2.26486 103.614 2.26486C103.744 2.26486 104.061 2.244 104.566 2.20229C104.648 2.18144 104.739 2.17101 104.838 2.17101C104.983 2.17101 105.106 2.17935 105.204 2.19604C105.208 2.28363 105.21 2.34619 105.21 2.38373C105.21 2.45047 105.202 2.5318 105.186 2.62774L104.146 2.80292C104.059 2.84463 104.016 2.90511 104.016 2.98436L104.034 3.21585L104.039 3.31595L104.034 3.59124L104.022 3.80396V3.85401C104.026 3.8999 104.028 3.93952 104.028 3.97289L104.022 4.76747C104.026 4.84254 104.028 4.89885 104.028 4.93639C104.028 4.95725 104.024 5.02398 104.016 5.1366C104.012 5.20334 104.01 5.27216 104.01 5.34307C104.01 5.40563 104.016 5.5537 104.028 5.78728C104.138 5.80813 104.231 5.82065 104.306 5.82482L105.18 5.84359H105.606L106.67 5.84984L107.705 5.81856C107.839 5.81856 107.981 5.80396 108.13 5.77477C108.138 5.63295 108.144 5.28467 108.148 4.72993L108.16 4.44838L108.124 3.38478L108.083 2.94682C108.071 2.91762 108.044 2.89051 108 2.86548C107.862 2.78206 107.586 2.68822 107.173 2.58394C107.098 2.56726 107.027 2.5464 106.96 2.52138C106.968 2.37539 106.983 2.25652 107.007 2.16475C107.094 2.16058 107.147 2.1585 107.167 2.1585L107.74 2.16475C108.107 2.21481 108.479 2.23983 108.857 2.23983C108.944 2.23983 109.013 2.23775 109.064 2.23358L109.833 2.20855C109.904 2.20438 109.973 2.20021 110.04 2.19604C110.182 2.16267 110.328 2.14599 110.477 2.14599C110.592 2.14599 110.73 2.15224 110.891 2.16475C110.887 2.32742 110.877 2.4755 110.862 2.60897C110.499 2.68822 110.261 2.74661 110.146 2.78415C110.036 2.81752 109.924 2.86548 109.809 2.92805L109.774 3.05318V3.15954L109.78 3.32221L109.774 3.40355C109.766 3.49114 109.762 3.55787 109.762 3.60375V3.76017C109.766 3.94786 109.768 4.05214 109.768 4.07299V4.86757L109.774 5.4682L109.762 6.26277C109.758 6.4463 109.764 6.82169 109.78 7.38895V8.27737L109.792 9.01564C109.792 9.15329 109.788 9.32013 109.78 9.51616C109.862 9.54119 109.939 9.56204 110.01 9.57873C110.381 9.66215 110.661 9.74765 110.85 9.83525L110.867 10.2732C110.71 10.2774 110.617 10.2795 110.59 10.2795C110.4 10.2795 110.184 10.2669 109.939 10.2419C109.616 10.2044 109.096 10.1856 108.379 10.1856C108.055 10.1856 107.638 10.2127 107.125 10.2669C107.07 10.2669 107.003 10.2544 106.924 10.2294C106.928 10.0375 106.938 9.90198 106.954 9.82273L107.409 9.71011L107.888 9.62878C107.935 9.61627 107.996 9.5975 108.071 9.57247C108.115 9.23462 108.138 8.67362 108.142 7.88947L108.148 7.35766C108.124 7.1366 108.113 6.87174 108.113 6.56309C107.967 6.55057 107.809 6.54223 107.64 6.53806L104.897 6.50678L104.843 6.50052L104.802 6.49427C104.775 6.49427 104.743 6.49635 104.708 6.50052C104.605 6.50469 104.518 6.50678 104.447 6.50678H104.282C104.207 6.50678 104.122 6.52138 104.028 6.55057L104.004 7.01981V7.10115C104.012 7.21376 104.016 7.28676 104.016 7.32013V9.25965C104.016 9.36809 104.022 9.47862 104.034 9.59124L104.093 9.62878L104.962 9.77268C105.005 9.78936 105.039 9.79979 105.062 9.80396C105.113 9.81648 105.157 9.83525 105.192 9.86027C105.204 9.9562 105.21 10.0209 105.21 10.0542C105.21 10.1084 105.202 10.1835 105.186 10.2795C105.044 10.2836 104.924 10.2857 104.826 10.2857C104.739 10.2857 104.658 10.2836 104.583 10.2795C104.548 10.2795 104.514 10.2774 104.483 10.2732L103.649 10.2357C103.452 10.2148 103.176 10.2044 102.822 10.2044L102.698 10.2106C102.532 10.219 102.435 10.2252 102.408 10.2294C102.164 10.2628 101.781 10.2795 101.261 10.2795Z" fill="white"/>
<path d="M111.89 6.15016C111.89 5.63295 111.985 5.11366 112.174 4.59228C112.312 4.21689 112.505 3.87278 112.753 3.55996C113.002 3.24713 113.313 2.96976 113.687 2.72784C114.062 2.48175 114.444 2.30657 114.834 2.20229C115.224 2.09385 115.66 2.03962 116.141 2.03962C116.96 2.03962 117.672 2.20229 118.275 2.52763C118.878 2.85297 119.353 3.29301 119.7 3.84776C120.149 4.56934 120.373 5.32638 120.373 6.11887C120.373 7.29927 119.993 8.31074 119.232 9.15329C118.476 9.99583 117.422 10.4171 116.07 10.4171C115.735 10.4171 115.421 10.3942 115.13 10.3483C114.909 10.3149 114.716 10.269 114.55 10.2106C114.251 10.1064 114.083 10.0459 114.048 10.0292C113.618 9.77059 113.274 9.50574 113.013 9.23462C112.753 8.9635 112.533 8.65693 112.351 8.31491C112.253 8.12304 112.14 7.77685 112.014 7.27633C111.932 6.95516 111.89 6.57977 111.89 6.15016ZM115.916 2.65902C115.573 2.65902 115.27 2.74453 115.006 2.91554C114.742 3.08238 114.543 3.26799 114.409 3.47237C114.184 3.81856 114.024 4.19812 113.93 4.61105C113.835 5.01981 113.788 5.51825 113.788 6.10636C113.788 6.46507 113.802 6.72159 113.829 6.87591C113.837 6.92596 113.849 7.01147 113.865 7.13243C113.9 7.44108 113.942 7.66632 113.989 7.80813C114.158 8.33785 114.279 8.66528 114.349 8.79041C114.468 9.00313 114.643 9.21376 114.876 9.42231C114.994 9.53076 115.165 9.63087 115.39 9.72263C115.615 9.81022 115.839 9.85401 116.064 9.85401C116.489 9.85401 116.884 9.74974 117.246 9.54119C117.613 9.32847 117.906 8.96976 118.127 8.46507C118.348 7.96038 118.458 7.30344 118.458 6.49427C118.458 6.16058 118.436 5.70803 118.393 5.1366L118.363 5.01773C118.352 4.98436 118.332 4.89885 118.304 4.76121C118.159 4.07716 117.879 3.55579 117.465 3.19708C117.055 2.83837 116.539 2.65902 115.916 2.65902Z" fill="white"/>
<path d="M124.423 7.12617H126.285L127.231 7.11366C127.361 7.11366 127.481 7.122 127.592 7.13869C127.603 7.33472 127.615 7.48071 127.627 7.57664L127.633 7.683L127.609 8.00834C127.605 8.05839 127.603 8.12096 127.603 8.19604V8.30865L124.399 8.31491C124.395 8.19395 124.393 8.10219 124.393 8.03962C124.393 7.93535 124.397 7.81856 124.405 7.68926C124.409 7.62252 124.411 7.57456 124.411 7.54536L124.405 7.23253L124.423 7.12617Z" fill="white"/>
<path d="M136.855 5.88738C136.812 4.78206 136.603 3.96872 136.229 3.44734C135.854 2.92179 135.294 2.65902 134.55 2.65902C134.1 2.65902 133.683 2.76747 133.296 2.98436C132.914 3.19708 132.512 3.62044 132.09 4.25443H131.552C131.56 3.76225 131.702 3.14703 131.978 2.40876C132.739 2.15016 133.631 2.02086 134.656 2.02086C135.961 2.02086 136.96 2.4171 137.653 3.20959C138.347 3.99791 138.694 4.99896 138.694 6.21272C138.694 7.5683 138.302 8.60897 137.517 9.33472C136.737 10.0605 135.696 10.4234 134.396 10.4234C133.265 10.4234 132.392 10.2273 131.777 9.83525C131.604 9.16371 131.487 8.57351 131.428 8.06465C131.665 8.06465 131.856 8.08134 132.002 8.1147C132.573 9.25339 133.365 9.82273 134.378 9.82273C135.103 9.82273 135.7 9.54953 136.169 9.00313C136.642 8.45255 136.879 7.5975 136.879 6.43796L136.583 6.44421C136.528 6.44421 136.432 6.44004 136.294 6.4317L135.371 6.41293C134.772 6.41293 134.425 6.45255 134.331 6.5318C134.24 6.61105 134.148 6.88425 134.053 7.35141L133.964 7.76434H133.545L133.551 7.30136L133.58 6.55057L133.574 6.3316L133.562 5.44317C133.562 5.18874 133.57 4.89051 133.586 4.54849L133.917 4.54223C133.933 4.54223 133.962 4.54432 134.006 4.54849C134.112 5.21168 134.232 5.60375 134.366 5.72471C134.504 5.84567 135.19 5.90615 136.424 5.90615L136.855 5.88738Z" fill="white"/>
<path d="M143.713 5.53702C144.063 5.65381 144.373 5.85819 144.641 6.15016C144.909 6.44213 145.234 6.94473 145.616 7.65798C146.066 8.49635 146.404 9.03441 146.633 9.27216C146.866 9.50574 147.175 9.68092 147.561 9.79771C147.703 9.83942 147.794 9.87278 147.833 9.89781C147.841 9.97289 147.845 10.0313 147.845 10.073C147.845 10.123 147.837 10.2002 147.821 10.3045L147.171 10.292L146.278 10.2669C146.054 10.2669 145.758 10.2815 145.392 10.3107C145.143 9.74348 144.767 9.01564 144.262 8.12722C143.758 7.23462 143.388 6.7049 143.151 6.53806C142.915 6.36705 142.672 6.28154 142.424 6.28154C142.408 6.43587 142.4 6.5756 142.4 6.70073L142.43 7.56413C142.438 7.73931 142.442 7.90615 142.442 8.06465L142.43 8.81543L142.442 9.03441L142.454 9.46611C142.532 9.56204 142.729 9.65381 143.045 9.7414C143.222 9.79145 143.372 9.85819 143.494 9.94161C143.506 10.025 143.512 10.0876 143.512 10.1293C143.512 10.1627 143.508 10.2148 143.5 10.2857C143.323 10.2941 143.179 10.2982 143.068 10.2982C142.777 10.2982 142.457 10.2857 142.111 10.2607L141.715 10.2357L141.183 10.2544L140.136 10.2482L139.575 10.2669L139.569 9.91658C139.604 9.88738 139.789 9.80605 140.124 9.67258L140.278 9.60375C140.451 9.52033 140.568 9.47028 140.627 9.4536C140.706 9.40355 140.757 9.33472 140.781 9.24713C140.804 9.15537 140.816 8.83003 140.816 8.27112L140.798 7.67049L140.804 6.34411L140.798 5.40563L140.81 5.13034L140.798 4.32325L140.816 4.00417C140.816 3.52033 140.786 3.19291 140.727 3.0219C140.605 2.91345 140.369 2.81335 140.018 2.72159C139.809 2.66736 139.667 2.61105 139.592 2.55266L139.634 2.16475C139.709 2.15224 139.787 2.14599 139.87 2.14599C140.158 2.14599 140.444 2.16684 140.727 2.20855C141.015 2.24609 141.384 2.26486 141.833 2.26486L142.087 2.25235L142.796 2.22732C142.903 2.22315 143.049 2.21272 143.234 2.19604L143.441 2.17727L143.589 2.18352C143.6 2.21689 143.606 2.26277 143.606 2.32117C143.606 2.46298 143.6 2.55474 143.589 2.59645C143.348 2.69239 143.1 2.7633 142.844 2.80918C142.647 2.84672 142.524 2.88217 142.477 2.91554C142.43 2.94891 142.406 3.02398 142.406 3.14077C142.406 3.55787 142.41 3.83316 142.418 3.96663L142.43 4.49844L142.418 4.89885V5.37435L142.412 5.91241C142.645 5.83316 142.871 5.71011 143.092 5.54327C143.313 5.37643 143.591 4.99687 143.926 4.40459C144.501 3.38269 144.984 2.7341 145.374 2.45881C145.768 2.17935 146.162 2.03962 146.556 2.03962C146.95 2.03962 147.25 2.14599 147.455 2.35871C147.664 2.56726 147.768 2.81752 147.768 3.10949C147.768 3.32638 147.703 3.51825 147.573 3.68509C147.447 3.85193 147.272 3.93535 147.047 3.93535C146.873 3.93535 146.736 3.89781 146.633 3.82273C146.535 3.74348 146.412 3.59333 146.267 3.37226C146.125 3.14703 145.983 3.03441 145.841 3.03441C145.51 3.03441 145.082 3.50991 144.558 4.4609C144.251 5.01147 143.969 5.37018 143.713 5.53702Z" fill="white"/>
<path d="M155.075 2.33368C155.126 2.45881 155.231 2.81543 155.388 3.40355C155.459 3.67049 155.497 3.95412 155.501 4.25443H154.963C154.584 3.68717 154.194 3.2805 153.792 3.03441C153.39 2.78415 152.941 2.65902 152.444 2.65902C151.833 2.65902 151.341 2.91137 150.966 3.41606C150.458 4.1001 150.204 5.05318 150.204 6.27529C150.204 6.98436 150.247 7.48905 150.334 7.78936C150.476 8.27737 150.655 8.6757 150.872 8.98436C151.037 9.21794 151.254 9.40355 151.522 9.54119C151.869 9.72888 152.239 9.82273 152.633 9.82273C153.067 9.82273 153.485 9.68092 153.887 9.39729C154.293 9.10949 154.681 8.68196 155.051 8.1147C155.197 8.08551 155.388 8.06882 155.625 8.06465C155.609 8.22315 155.583 8.3879 155.548 8.55892C155.536 8.62565 155.491 8.89051 155.412 9.35349L155.359 9.54119L155.276 9.83525C155.036 10.0313 154.697 10.1794 154.259 10.2795C153.826 10.3754 153.292 10.4234 152.657 10.4234C152.172 10.4234 151.713 10.3754 151.28 10.2795C150.85 10.1835 150.482 10.0313 150.174 9.82273C149.725 9.52242 149.372 9.19708 149.116 8.84671C148.86 8.49635 148.669 8.1147 148.543 7.70177C148.42 7.28884 148.359 6.82586 148.359 6.31283C148.359 5.06986 148.746 4.0438 149.518 3.23462C150.294 2.42544 151.284 2.02086 152.486 2.02086C152.974 2.02086 153.433 2.04797 153.863 2.10219C154.297 2.15224 154.701 2.22941 155.075 2.33368Z" fill="white"/>
<path d="M160.478 5.53702C160.829 5.65381 161.138 5.85819 161.406 6.15016C161.674 6.44213 161.999 6.94473 162.382 7.65798C162.831 8.49635 163.17 9.03441 163.399 9.27216C163.631 9.50574 163.94 9.68092 164.327 9.79771C164.469 9.83942 164.559 9.87278 164.599 9.89781C164.607 9.97289 164.61 10.0313 164.61 10.073C164.61 10.123 164.603 10.2002 164.587 10.3045L163.937 10.292L163.044 10.2669C162.819 10.2669 162.524 10.2815 162.157 10.3107C161.909 9.74348 161.532 9.01564 161.028 8.12722C160.524 7.23462 160.153 6.7049 159.917 6.53806C159.68 6.36705 159.438 6.28154 159.189 6.28154C159.174 6.43587 159.166 6.5756 159.166 6.70073L159.195 7.56413C159.203 7.73931 159.207 7.90615 159.207 8.06465L159.195 8.81543L159.207 9.03441L159.219 9.46611C159.298 9.56204 159.495 9.65381 159.81 9.7414C159.988 9.79145 160.137 9.85819 160.259 9.94161C160.271 10.025 160.277 10.0876 160.277 10.1293C160.277 10.1627 160.273 10.2148 160.265 10.2857C160.088 10.2941 159.944 10.2982 159.834 10.2982C159.542 10.2982 159.223 10.2857 158.876 10.2607L158.48 10.2357L157.948 10.2544L156.902 10.2482L156.34 10.2669L156.334 9.91658C156.37 9.88738 156.555 9.80605 156.89 9.67258L157.044 9.60375C157.217 9.52033 157.333 9.47028 157.392 9.4536C157.471 9.40355 157.522 9.33472 157.546 9.24713C157.57 9.15537 157.581 8.83003 157.581 8.27112L157.564 7.67049L157.57 6.34411L157.564 5.40563L157.576 5.13034L157.564 4.32325L157.581 4.00417C157.581 3.52033 157.552 3.19291 157.493 3.0219C157.371 2.91345 157.134 2.81335 156.783 2.72159C156.575 2.66736 156.433 2.61105 156.358 2.55266L156.399 2.16475C156.474 2.15224 156.553 2.14599 156.636 2.14599C156.923 2.14599 157.209 2.16684 157.493 2.20855C157.781 2.24609 158.149 2.26486 158.598 2.26486L158.852 2.25235L159.562 2.22732C159.668 2.22315 159.814 2.21272 159.999 2.19604L160.206 2.17727L160.354 2.18352C160.366 2.21689 160.372 2.26277 160.372 2.32117C160.372 2.46298 160.366 2.55474 160.354 2.59645C160.114 2.69239 159.865 2.7633 159.609 2.80918C159.412 2.84672 159.29 2.88217 159.243 2.91554C159.195 2.94891 159.172 3.02398 159.172 3.14077C159.172 3.55787 159.176 3.83316 159.184 3.96663L159.195 4.49844L159.184 4.89885V5.37435L159.178 5.91241C159.41 5.83316 159.637 5.71011 159.857 5.54327C160.078 5.37643 160.356 4.99687 160.691 4.40459C161.266 3.38269 161.749 2.7341 162.139 2.45881C162.533 2.17935 162.928 2.03962 163.322 2.03962C163.716 2.03962 164.015 2.14599 164.22 2.35871C164.429 2.56726 164.534 2.81752 164.534 3.10949C164.534 3.32638 164.469 3.51825 164.339 3.68509C164.212 3.85193 164.037 3.93535 163.812 3.93535C163.639 3.93535 163.501 3.89781 163.399 3.82273C163.3 3.74348 163.178 3.59333 163.032 3.37226C162.89 3.14703 162.748 3.03441 162.606 3.03441C162.275 3.03441 161.848 3.50991 161.324 4.4609C161.016 5.01147 160.734 5.37018 160.478 5.53702Z" fill="white"/>
<path d="M168.636 8.56517C168.601 8.3316 168.23 7.69552 167.525 6.65693C167.3 6.32742 167.091 6.00209 166.898 5.68092C166.551 5.10115 166.207 4.55474 165.864 4.04171L165.71 3.77894C165.537 3.47862 165.342 3.18248 165.125 2.89051C165.042 2.80292 164.89 2.73827 164.67 2.69656L164.581 2.67153C164.49 2.64651 164.423 2.62982 164.38 2.62148C164.36 2.58394 164.35 2.55057 164.35 2.52138C164.35 2.49635 164.352 2.46507 164.356 2.42753C164.36 2.38582 164.364 2.32534 164.368 2.24609C164.427 2.22106 164.543 2.20855 164.717 2.20855L165.107 2.19604C165.123 2.20021 165.143 2.20438 165.166 2.20855C165.265 2.22523 165.334 2.23358 165.373 2.23358C165.381 2.23358 165.401 2.23149 165.432 2.22732C165.842 2.29406 166.392 2.32742 167.082 2.32742C167.397 2.32742 167.706 2.30448 168.01 2.2586C168.053 2.25026 168.087 2.24609 168.11 2.24609C168.114 2.24609 168.128 2.24818 168.152 2.25235C168.171 2.30657 168.181 2.34828 168.181 2.37748C168.181 2.38582 168.179 2.41084 168.175 2.45255C168.171 2.48175 168.169 2.50469 168.169 2.52138L168.175 2.70282C168.096 2.73618 167.988 2.76538 167.85 2.79041L167.584 2.84046C167.458 2.86548 167.326 2.88843 167.188 2.90928C167.156 2.91345 167.141 2.94891 167.141 3.01564C167.196 3.15328 167.314 3.36601 167.495 3.65381L167.655 3.92909L167.968 4.39833L168.796 5.74974L169.405 6.91345L170.966 3.4098C171.084 3.14286 171.143 2.98853 171.143 2.94682C171.143 2.83003 171.015 2.77164 170.759 2.77164L170.54 2.72784C170.445 2.71116 170.382 2.69864 170.351 2.6903C170.343 2.66111 170.331 2.50678 170.315 2.22732C170.382 2.22732 170.552 2.23983 170.824 2.26486L171.527 2.29614L171.675 2.32117H171.959L172.059 2.31491C172.142 2.3024 172.223 2.29406 172.302 2.28989L172.497 2.27112L172.55 2.26486C172.609 2.26069 172.666 2.25443 172.721 2.24609L172.715 2.71533L172.639 2.74035C172.311 2.78624 172.077 2.85714 171.935 2.95308C171.797 3.04901 171.637 3.30344 171.456 3.71637L169.369 8.44004C168.77 9.79979 167.964 10.4797 166.951 10.4797C166.549 10.4797 166.228 10.3754 165.988 10.1668C165.747 9.95829 165.627 9.70803 165.627 9.41606C165.627 9.19082 165.698 8.99687 165.84 8.8342C165.982 8.66736 166.171 8.58394 166.408 8.58394C166.53 8.58394 166.648 8.61105 166.762 8.66528C166.881 8.71533 167.024 8.87591 167.194 9.14703C167.336 9.36809 167.48 9.47862 167.625 9.47862C168 9.47862 168.337 9.17414 168.636 8.56517Z" fill="white"/>
<path d="M172.81 2.62148L172.804 2.14599L174.217 2.23983L174.849 2.23358H175.08C175.32 2.23358 175.697 2.21898 176.209 2.18978C176.501 2.16893 176.684 2.1585 176.759 2.1585C177.256 2.1585 177.63 2.1877 177.882 2.24609C178.268 2.32951 178.574 2.46298 178.798 2.64651C179.027 2.83003 179.222 3.09281 179.384 3.43483C179.549 3.77268 179.632 4.08759 179.632 4.37956C179.632 5.10532 179.415 5.69552 178.982 6.15016C178.552 6.60063 178.008 6.82586 177.35 6.82586C177.122 6.82586 176.903 6.79666 176.694 6.73827C176.489 6.67987 176.296 6.59228 176.115 6.4755C176.095 6.35454 176.085 6.1877 176.085 5.97497C176.18 5.98332 176.264 5.98957 176.339 5.99374C176.418 5.99791 176.487 6 176.546 6C176.881 6 177.163 5.90198 177.391 5.70594C177.695 5.45151 177.847 5.03858 177.847 4.46715C177.847 4.05839 177.78 3.72471 177.646 3.46611C177.516 3.20334 177.36 3.02607 177.179 2.93431C176.926 2.80918 176.643 2.74661 176.327 2.74661C176.032 2.74661 175.821 2.79249 175.695 2.88425C175.663 2.93848 175.64 2.99062 175.624 3.04067L175.665 5.98749L175.653 6.23775L175.671 6.50052C175.675 6.55892 175.677 6.64442 175.677 6.75704V7.27007L175.683 8.08968L175.671 9.06569C175.671 9.20334 175.683 9.38895 175.707 9.62252L176.883 9.77894C176.899 9.87904 176.907 9.95829 176.907 10.0167C176.907 10.0792 176.897 10.1668 176.877 10.2795C176.779 10.2961 176.704 10.3045 176.653 10.3045C176.53 10.3045 176.3 10.2899 175.961 10.2607C175.622 10.2273 175.236 10.2106 174.802 10.2106C174.313 10.2106 173.848 10.244 173.407 10.3107C173.332 10.3233 173.214 10.3337 173.052 10.342C173.037 10.2211 173.029 10.1314 173.029 10.073C173.029 10.0355 173.033 9.97706 173.04 9.89781L173.401 9.77268C173.649 9.69343 173.864 9.5975 174.045 9.48488C174.081 9.36392 174.099 9.25339 174.099 9.15329C174.099 9.11157 174.097 9.06361 174.093 9.00939C174.089 8.88008 174.087 8.69864 174.087 8.46507L174.069 6.70699L174.004 4.72367C173.977 3.78102 173.955 3.27216 173.939 3.19708C173.911 3.07612 173.864 2.98227 173.797 2.91554C173.73 2.84463 173.618 2.79458 173.46 2.76538C173.133 2.70699 172.916 2.65902 172.81 2.62148Z" fill="white"/>
<path d="M187.234 2.33368C187.286 2.45881 187.39 2.81543 187.548 3.40355C187.619 3.67049 187.656 3.95412 187.66 4.25443H187.122C186.744 3.68717 186.354 3.2805 185.952 3.03441C185.55 2.78415 185.1 2.65902 184.604 2.65902C183.993 2.65902 183.5 2.91137 183.126 3.41606C182.617 4.1001 182.363 5.05318 182.363 6.27529C182.363 6.98436 182.407 7.48905 182.493 7.78936C182.635 8.27737 182.814 8.6757 183.031 8.98436C183.197 9.21794 183.414 9.40355 183.682 9.54119C184.028 9.72888 184.399 9.82273 184.793 9.82273C185.226 9.82273 185.644 9.68092 186.046 9.39729C186.452 9.10949 186.84 8.68196 187.211 8.1147C187.357 8.08551 187.548 8.06882 187.784 8.06465C187.768 8.22315 187.743 8.3879 187.707 8.55892C187.696 8.62565 187.65 8.89051 187.571 9.35349L187.518 9.54119L187.435 9.83525C187.195 10.0313 186.856 10.1794 186.419 10.2795C185.985 10.3754 185.451 10.4234 184.817 10.4234C184.332 10.4234 183.873 10.3754 183.439 10.2795C183.01 10.1835 182.641 10.0313 182.334 9.82273C181.884 9.52242 181.532 9.19708 181.275 8.84671C181.019 8.49635 180.828 8.1147 180.702 7.70177C180.58 7.28884 180.519 6.82586 180.519 6.31283C180.519 5.06986 180.905 4.0438 181.677 3.23462C182.454 2.42544 183.443 2.02086 184.645 2.02086C185.134 2.02086 185.593 2.04797 186.023 2.10219C186.456 2.15224 186.86 2.22941 187.234 2.33368Z" fill="white"/>
<path d="M191.308 8.03962C193.404 5.79979 194.776 4.2878 195.422 3.50365C195.422 3.19499 195.412 3.01773 195.393 2.97185C195.373 2.92179 195.308 2.86966 195.197 2.81543C195.087 2.75704 194.872 2.68822 194.553 2.60897C194.399 2.57143 194.299 2.54223 194.252 2.52138C194.259 2.36705 194.275 2.24818 194.299 2.16475L194.464 2.1585C194.795 2.1585 195.016 2.16475 195.127 2.17727C195.438 2.21898 195.749 2.23983 196.061 2.23983C196.565 2.23983 197.026 2.21689 197.444 2.17101C197.598 2.15433 197.72 2.14599 197.81 2.14599C197.897 2.14599 198.021 2.15224 198.183 2.16475C198.179 2.3316 198.169 2.47967 198.153 2.60897C197.704 2.70907 197.408 2.79041 197.267 2.85297C197.129 2.91137 197.06 3.01773 197.06 3.17205V4.07925L197.066 5.4682L197.054 6.26277L197.071 7.38895V8.27737L197.083 9.01564C197.083 9.16163 197.079 9.32847 197.071 9.51616C197.154 9.54119 197.231 9.56204 197.302 9.57873C197.672 9.66215 197.952 9.74765 198.141 9.83525L198.159 10.2732L197.905 10.2795C197.838 10.2795 197.761 10.2753 197.674 10.2669L197.231 10.2419C196.908 10.2044 196.392 10.1856 195.682 10.1856C195.32 10.1856 195.042 10.1981 194.849 10.2231C194.6 10.2523 194.451 10.2669 194.399 10.2669C194.356 10.2669 194.295 10.2544 194.216 10.2294C194.22 10.0292 194.23 9.89364 194.246 9.82273L194.648 9.72263L194.878 9.67883C195.127 9.63712 195.288 9.60167 195.363 9.57247C195.414 9.26382 195.44 8.52555 195.44 7.35766L195.434 5.51199L195.446 4.34828L191.308 8.85923C191.312 9.32638 191.317 9.57039 191.325 9.59124C191.349 9.62044 191.418 9.64129 191.532 9.65381L191.916 9.71637C192.255 9.78311 192.445 9.83107 192.484 9.86027C192.496 9.9562 192.502 10.0209 192.502 10.0542C192.502 10.1084 192.494 10.1835 192.478 10.2795L192.112 10.2857C191.962 10.2857 191.751 10.2732 191.479 10.2482L191.036 10.2419L190.734 10.2231L190.196 10.2044C190.023 10.2044 189.812 10.2169 189.564 10.2419C189.311 10.2669 188.974 10.2795 188.553 10.2795C188.553 10.1502 188.565 10.0021 188.588 9.83525C188.624 9.8269 188.706 9.81439 188.836 9.79771L189.091 9.74765C189.339 9.70177 189.526 9.65172 189.652 9.5975C189.692 8.80918 189.711 8.12096 189.711 7.53285V6.70073L189.729 4.58603C189.729 3.94786 189.707 3.39937 189.664 2.94056C189.66 2.91554 189.646 2.87174 189.623 2.80918C189.599 2.79666 189.564 2.78832 189.516 2.78415C189.481 2.77998 189.443 2.77372 189.404 2.76538C189.223 2.73201 189.059 2.71116 188.913 2.70282L188.825 2.67779C188.714 2.66528 188.634 2.64859 188.582 2.62774C188.57 2.50678 188.565 2.42961 188.565 2.39625C188.565 2.34619 188.576 2.27737 188.6 2.18978C188.687 2.16893 188.779 2.1585 188.878 2.1585C189.166 2.1585 189.501 2.17727 189.883 2.21481C190.23 2.24818 190.517 2.26486 190.746 2.26486C191.065 2.26486 191.359 2.25026 191.627 2.22106C191.958 2.18352 192.153 2.16475 192.212 2.16475C192.287 2.16475 192.382 2.17518 192.496 2.19604L192.502 2.38373C192.502 2.45047 192.494 2.5318 192.478 2.62774L191.438 2.80292C191.379 2.81126 191.343 2.90928 191.331 3.09698C191.319 3.28467 191.313 3.50782 191.313 3.76642L191.319 4.06048L191.313 4.62357L191.319 4.9489L191.302 5.37435C191.302 5.42857 191.306 5.52659 191.313 5.6684C191.321 5.8561 191.325 6.04171 191.325 6.22523C191.325 6.37539 191.321 6.52555 191.313 6.6757L191.296 7.00104L191.308 8.03962Z" fill="white"/>
<path d="M199.182 6.15016C199.182 5.63295 199.277 5.11366 199.466 4.59228C199.604 4.21689 199.797 3.87278 200.045 3.55996C200.293 3.24713 200.605 2.96976 200.979 2.72784C201.353 2.48175 201.736 2.30657 202.126 2.20229C202.516 2.09385 202.952 2.03962 203.432 2.03962C204.252 2.03962 204.964 2.20229 205.567 2.52763C206.17 2.85297 206.644 3.29301 206.991 3.84776C207.441 4.56934 207.665 5.32638 207.665 6.11887C207.665 7.29927 207.285 8.31074 206.524 9.15329C205.768 9.99583 204.713 10.4171 203.361 10.4171C203.026 10.4171 202.713 10.3942 202.422 10.3483C202.201 10.3149 202.008 10.269 201.842 10.2106C201.543 10.1064 201.375 10.0459 201.34 10.0292C200.91 9.77059 200.565 9.50574 200.305 9.23462C200.045 8.9635 199.824 8.65693 199.643 8.31491C199.544 8.12304 199.432 7.77685 199.306 7.27633C199.223 6.95516 199.182 6.57977 199.182 6.15016ZM203.208 2.65902C202.865 2.65902 202.561 2.74453 202.297 2.91554C202.033 3.08238 201.834 3.26799 201.7 3.47237C201.476 3.81856 201.316 4.19812 201.221 4.61105C201.127 5.01981 201.08 5.51825 201.08 6.10636C201.08 6.46507 201.093 6.72159 201.121 6.87591C201.129 6.92596 201.141 7.01147 201.156 7.13243C201.192 7.44108 201.233 7.66632 201.281 7.80813C201.45 8.33785 201.57 8.66528 201.641 8.79041C201.759 9.00313 201.935 9.21376 202.167 9.42231C202.286 9.53076 202.457 9.63087 202.682 9.72263C202.906 9.81022 203.131 9.85401 203.356 9.85401C203.781 9.85401 204.175 9.74974 204.538 9.54119C204.904 9.32847 205.198 8.96976 205.419 8.46507C205.639 7.96038 205.75 7.30344 205.75 6.49427C205.75 6.16058 205.728 5.70803 205.685 5.1366L205.655 5.01773C205.643 4.98436 205.624 4.89885 205.596 4.76121C205.45 4.07716 205.17 3.55579 204.757 3.19708C204.347 2.83837 203.83 2.65902 203.208 2.65902Z" fill="white"/>
<path d="M208.617 10.2795C208.617 10.1543 208.629 10.0063 208.652 9.83525L209.391 9.6976C209.482 9.67675 209.59 9.64338 209.717 9.5975L209.793 8.03337C209.778 7.47028 209.77 7.04901 209.77 6.76955L209.776 6.6194C209.787 6.44838 209.793 6.01877 209.793 5.33055L209.782 5.14911L209.793 4.62357L209.787 4.07925V3.81022C209.787 3.5683 209.77 3.28467 209.734 2.95933C209.73 2.93014 209.715 2.88008 209.687 2.80918C209.655 2.79666 209.62 2.78832 209.581 2.78415C209.545 2.77998 209.508 2.77372 209.468 2.76538C209.315 2.73618 209.151 2.71533 208.978 2.70282L208.889 2.67779C208.782 2.66528 208.702 2.64859 208.646 2.62774C208.635 2.50678 208.629 2.42961 208.629 2.39625C208.629 2.34619 208.641 2.27737 208.664 2.18978C208.743 2.1731 208.853 2.16475 208.995 2.16475C209.137 2.16475 209.236 2.16267 209.291 2.1585C209.772 2.21272 210.128 2.24192 210.361 2.24609C210.467 2.24609 210.574 2.25026 210.68 2.2586C210.79 2.26277 210.887 2.26486 210.97 2.26486C211.1 2.26486 211.417 2.244 211.922 2.20229C212.004 2.18144 212.095 2.17101 212.193 2.17101C212.339 2.17101 212.461 2.17935 212.56 2.19604C212.564 2.28363 212.566 2.34619 212.566 2.38373C212.566 2.45047 212.558 2.5318 212.542 2.62774L211.502 2.80292C211.415 2.84463 211.372 2.90511 211.372 2.98436L211.39 3.21585L211.395 3.31595L211.39 3.59124L211.378 3.80396V3.85401C211.382 3.8999 211.384 3.93952 211.384 3.97289L211.378 4.76747C211.382 4.84254 211.384 4.89885 211.384 4.93639C211.384 4.95725 211.38 5.02398 211.372 5.1366C211.368 5.20334 211.366 5.27216 211.366 5.34307C211.366 5.40563 211.372 5.5537 211.384 5.78728C211.494 5.80813 211.587 5.82065 211.661 5.82482L212.536 5.84359H212.962L214.026 5.84984L215.061 5.81856C215.195 5.81856 215.337 5.80396 215.486 5.77477C215.494 5.63295 215.5 5.28467 215.504 4.72993L215.516 4.44838L215.48 3.38478L215.439 2.94682C215.427 2.91762 215.4 2.89051 215.356 2.86548C215.218 2.78206 214.942 2.68822 214.529 2.58394C214.454 2.56726 214.383 2.5464 214.316 2.52138C214.324 2.37539 214.339 2.25652 214.363 2.16475C214.45 2.16058 214.503 2.1585 214.523 2.1585L215.096 2.16475C215.463 2.21481 215.835 2.23983 216.213 2.23983C216.3 2.23983 216.369 2.23775 216.42 2.23358L217.189 2.20855C217.26 2.20438 217.329 2.20021 217.396 2.19604C217.538 2.16267 217.683 2.14599 217.833 2.14599C217.948 2.14599 218.085 2.15224 218.247 2.16475C218.243 2.32742 218.233 2.4755 218.217 2.60897C217.855 2.68822 217.616 2.74661 217.502 2.78415C217.392 2.81752 217.28 2.86548 217.165 2.92805L217.13 3.05318V3.15954L217.136 3.32221L217.13 3.40355C217.122 3.49114 217.118 3.55787 217.118 3.60375V3.76017C217.122 3.94786 217.124 4.05214 217.124 4.07299V4.86757L217.13 5.4682L217.118 6.26277C217.114 6.4463 217.12 6.82169 217.136 7.38895V8.27737L217.147 9.01564C217.147 9.15329 217.144 9.32013 217.136 9.51616C217.218 9.54119 217.295 9.56204 217.366 9.57873C217.737 9.66215 218.016 9.74765 218.206 9.83525L218.223 10.2732C218.066 10.2774 217.973 10.2795 217.946 10.2795C217.756 10.2795 217.54 10.2669 217.295 10.2419C216.972 10.2044 216.452 10.1856 215.735 10.1856C215.411 10.1856 214.994 10.2127 214.481 10.2669C214.426 10.2669 214.359 10.2544 214.28 10.2294C214.284 10.0375 214.294 9.90198 214.31 9.82273L214.765 9.71011L215.244 9.62878C215.291 9.61627 215.352 9.5975 215.427 9.57247C215.471 9.23462 215.494 8.67362 215.498 7.88947L215.504 7.35766C215.48 7.1366 215.469 6.87174 215.469 6.56309C215.323 6.55057 215.165 6.54223 214.996 6.53806L212.253 6.50678L212.199 6.50052L212.158 6.49427C212.13 6.49427 212.099 6.49635 212.063 6.50052C211.961 6.50469 211.874 6.50678 211.803 6.50678H211.638C211.563 6.50678 211.478 6.52138 211.384 6.55057L211.36 7.01981V7.10115C211.368 7.21376 211.372 7.28676 211.372 7.32013V9.25965C211.372 9.36809 211.378 9.47862 211.39 9.59124L211.449 9.62878L212.318 9.77268C212.361 9.78936 212.395 9.79979 212.418 9.80396C212.469 9.81648 212.513 9.83525 212.548 9.86027C212.56 9.9562 212.566 10.0209 212.566 10.0542C212.566 10.1084 212.558 10.1835 212.542 10.2795C212.4 10.2836 212.28 10.2857 212.182 10.2857C212.095 10.2857 212.014 10.2836 211.939 10.2795C211.904 10.2795 211.87 10.2774 211.839 10.2732L211.005 10.2357C210.808 10.2148 210.532 10.2044 210.178 10.2044L210.053 10.2106C209.888 10.219 209.791 10.2252 209.764 10.2294C209.519 10.2628 209.137 10.2795 208.617 10.2795Z" fill="white"/>
<path d="M219.092 10.2795C219.092 10.1543 219.104 10.0063 219.128 9.83525L219.867 9.6976C219.957 9.67675 220.066 9.64338 220.192 9.5975L220.269 8.03337C220.253 7.47028 220.245 7.04901 220.245 6.76955L220.251 6.6194C220.263 6.44838 220.269 6.01877 220.269 5.33055L220.257 5.14911L220.269 4.62357L220.263 4.07925V3.81022C220.263 3.5683 220.245 3.28467 220.21 2.95933C220.206 2.93014 220.19 2.88008 220.162 2.80918C220.131 2.79666 220.095 2.78832 220.056 2.78415C220.021 2.77998 219.983 2.77372 219.944 2.76538C219.79 2.73618 219.626 2.71533 219.453 2.70282L219.364 2.67779C219.258 2.66528 219.177 2.64859 219.122 2.62774C219.11 2.50678 219.104 2.42961 219.104 2.39625C219.104 2.34619 219.116 2.27737 219.14 2.18978C219.219 2.1731 219.329 2.16475 219.471 2.16475C219.613 2.16475 219.711 2.16267 219.766 2.1585C220.247 2.21272 220.604 2.24192 220.836 2.24609C220.943 2.24609 221.049 2.25026 221.156 2.2586C221.266 2.26277 221.363 2.26486 221.445 2.26486C221.575 2.26486 221.893 2.244 222.397 2.20229C222.48 2.18144 222.57 2.17101 222.669 2.17101C222.815 2.17101 222.937 2.17935 223.036 2.19604C223.039 2.28363 223.041 2.34619 223.041 2.38373C223.041 2.45047 223.034 2.5318 223.018 2.62774L221.977 2.80292C221.891 2.84463 221.847 2.90511 221.847 2.98436L221.865 3.21585L221.871 3.31595L221.865 3.59124L221.853 3.80396V3.85401C221.857 3.8999 221.859 3.93952 221.859 3.97289L221.853 4.76747C221.857 4.84254 221.859 4.89885 221.859 4.93639C221.859 4.95725 221.855 5.02398 221.847 5.1366C221.843 5.20334 221.841 5.27216 221.841 5.34307C221.841 5.40563 221.847 5.5537 221.859 5.78728C221.969 5.80813 222.062 5.82065 222.137 5.82482L223.012 5.84359H223.438L224.502 5.84984L225.536 5.81856C225.67 5.81856 225.812 5.80396 225.962 5.77477C225.97 5.63295 225.976 5.28467 225.98 4.72993L225.991 4.44838L225.956 3.38478L225.914 2.94682C225.903 2.91762 225.875 2.89051 225.832 2.86548C225.694 2.78206 225.418 2.68822 225.004 2.58394C224.929 2.56726 224.858 2.5464 224.791 2.52138C224.799 2.37539 224.815 2.25652 224.839 2.16475C224.925 2.16058 224.978 2.1585 224.998 2.1585L225.572 2.16475C225.938 2.21481 226.311 2.23983 226.689 2.23983C226.776 2.23983 226.845 2.23775 226.896 2.23358L227.664 2.20855C227.735 2.20438 227.804 2.20021 227.871 2.19604C228.013 2.16267 228.159 2.14599 228.309 2.14599C228.423 2.14599 228.561 2.15224 228.723 2.16475C228.719 2.32742 228.709 2.4755 228.693 2.60897C228.33 2.68822 228.092 2.74661 227.978 2.78415C227.867 2.81752 227.755 2.86548 227.641 2.92805L227.605 3.05318V3.15954L227.611 3.32221L227.605 3.40355C227.597 3.49114 227.593 3.55787 227.593 3.60375V3.76017C227.597 3.94786 227.599 4.05214 227.599 4.07299V4.86757L227.605 5.4682L227.593 6.26277C227.589 6.4463 227.595 6.82169 227.611 7.38895V8.27737L227.623 9.01564C227.623 9.15329 227.619 9.32013 227.611 9.51616C227.694 9.54119 227.771 9.56204 227.842 9.57873C228.212 9.66215 228.492 9.74765 228.681 9.83525L228.699 10.2732C228.541 10.2774 228.449 10.2795 228.421 10.2795C228.232 10.2795 228.015 10.2669 227.771 10.2419C227.448 10.2044 226.927 10.1856 226.21 10.1856C225.887 10.1856 225.469 10.2127 224.957 10.2669C224.902 10.2669 224.835 10.2544 224.756 10.2294C224.76 10.0375 224.77 9.90198 224.785 9.82273L225.241 9.71011L225.719 9.62878C225.767 9.61627 225.828 9.5975 225.903 9.57247C225.946 9.23462 225.97 8.67362 225.974 7.88947L225.98 7.35766C225.956 7.1366 225.944 6.87174 225.944 6.56309C225.798 6.55057 225.641 6.54223 225.471 6.53806L222.728 6.50678L222.675 6.50052L222.634 6.49427C222.606 6.49427 222.574 6.49635 222.539 6.50052C222.436 6.50469 222.35 6.50678 222.279 6.50678H222.113C222.038 6.50678 221.954 6.52138 221.859 6.55057L221.835 7.01981V7.10115C221.843 7.21376 221.847 7.28676 221.847 7.32013V9.25965C221.847 9.36809 221.853 9.47862 221.865 9.59124L221.924 9.62878L222.793 9.77268C222.836 9.78936 222.87 9.79979 222.894 9.80396C222.945 9.81648 222.988 9.83525 223.024 9.86027C223.036 9.9562 223.041 10.0209 223.041 10.0542C223.041 10.1084 223.034 10.1835 223.018 10.2795C222.876 10.2836 222.756 10.2857 222.657 10.2857C222.57 10.2857 222.49 10.2836 222.415 10.2795C222.379 10.2795 222.346 10.2774 222.314 10.2732L221.481 10.2357C221.284 10.2148 221.008 10.2044 220.653 10.2044L220.529 10.2106C220.363 10.219 220.267 10.2252 220.239 10.2294C219.995 10.2628 219.613 10.2795 219.092 10.2795Z" fill="white"/>
<path d="M232.364 5.64964C232.794 5.6121 233.184 5.59333 233.535 5.59333C234.65 5.59333 235.472 5.81022 236 6.244C236.528 6.67779 236.792 7.21376 236.792 7.85193C236.792 8.60688 236.498 9.20959 235.911 9.66006C235.324 10.1064 234.591 10.3295 233.712 10.3295C233.55 10.3295 233.278 10.3149 232.896 10.2857C232.636 10.2649 232.317 10.2544 231.938 10.2544C231.773 10.2544 231.462 10.269 231.004 10.2982L229.621 10.3545L229.633 9.85401C229.712 9.82899 229.826 9.80605 229.976 9.78519C230.26 9.74348 230.468 9.68926 230.602 9.62252C230.705 9.52659 230.756 9.09072 230.756 8.31491C230.756 6.84254 230.746 5.57039 230.727 4.49844C230.711 3.42231 230.679 2.85714 230.632 2.80292C230.589 2.74453 230.455 2.70907 230.23 2.69656C230.143 2.69239 229.95 2.66945 229.651 2.62774L229.633 2.18352L229.899 2.17727C230.214 2.17727 230.642 2.20021 231.182 2.24609L231.678 2.28363C231.793 2.28363 231.97 2.2732 232.21 2.25235L232.559 2.22106C232.788 2.20855 232.947 2.19604 233.038 2.18352C233.176 2.16267 233.328 2.15224 233.493 2.15224L233.499 2.28363L233.487 2.49635C233.483 2.52138 233.481 2.55892 233.481 2.60897C232.878 2.72993 232.539 2.82377 232.465 2.89051C232.394 2.95725 232.358 3.14494 232.358 3.4536L232.364 3.76642C232.372 3.92075 232.376 4.1293 232.376 4.39208L232.364 5.64964ZM232.447 9.59124C232.699 9.70386 232.938 9.76017 233.162 9.76017C234.439 9.76017 235.078 9.17623 235.078 8.00834C235.078 6.77372 234.433 6.15641 233.144 6.15641C232.798 6.15641 232.541 6.17727 232.376 6.21898C232.368 6.37748 232.364 6.50261 232.364 6.59437L232.376 6.98853L232.37 7.91449L232.388 9.20334V9.30344C232.388 9.39103 232.407 9.48697 232.447 9.59124ZM237.289 10.3045V9.85401C237.367 9.82899 237.497 9.79354 237.679 9.74765C237.935 9.68092 238.126 9.6121 238.252 9.54119C238.323 9.41189 238.359 9.23253 238.359 9.00313L238.353 8.26486L238.364 6.83837L238.359 6.50052C238.386 5.67466 238.4 5.24922 238.4 5.22419L238.388 4.39208L238.406 4.05422L238.376 3.34098L238.37 3.07195C238.366 3.03024 238.353 2.9635 238.329 2.87174C238.167 2.79249 237.905 2.74244 237.543 2.72159C237.456 2.71741 237.387 2.71116 237.336 2.70282L237.318 2.15224L239.009 2.22732C239.218 2.23566 239.348 2.23983 239.399 2.23983C239.632 2.23983 240.004 2.22315 240.516 2.18978C240.804 2.16893 240.985 2.15641 241.06 2.15224C241.064 2.23149 241.066 2.29823 241.066 2.35245C241.066 2.42336 241.062 2.51512 241.054 2.62774C240.897 2.68613 240.715 2.74244 240.51 2.79666C240.309 2.84672 240.144 2.89885 240.014 2.95308C239.99 3.06152 239.978 3.21794 239.978 3.42231C239.978 3.60167 239.984 3.74765 239.996 3.86027C239.984 4.56517 239.978 5.1074 239.978 5.48697L239.984 7.13869L239.967 7.97706L239.978 9.22836L239.972 9.46611C239.972 9.49948 239.98 9.54745 239.996 9.61001C240.236 9.66423 240.455 9.70177 240.652 9.72263C240.688 9.7268 240.808 9.74348 241.013 9.77268C241.029 9.89781 241.037 10.0021 241.037 10.0855C241.037 10.1314 241.035 10.2023 241.031 10.2982C240.979 10.2982 240.94 10.3003 240.912 10.3045C240.786 10.3128 240.713 10.317 240.694 10.317C240.666 10.317 240.615 10.3107 240.54 10.2982C240.485 10.2899 240.223 10.2607 239.754 10.2106L238.707 10.1981C238.498 10.1981 238.195 10.219 237.797 10.2607C237.537 10.2857 237.367 10.3003 237.289 10.3045Z" fill="white"/>
<path d="M241.569 2.20229C241.71 2.19812 241.825 2.19604 241.911 2.19604C242.006 2.19604 242.083 2.19812 242.142 2.20229L242.461 2.22732L242.609 2.22106C242.629 2.22106 242.7 2.23149 242.822 2.25235C243.043 2.28989 243.36 2.30865 243.774 2.30865C244.286 2.30865 244.771 2.27529 245.228 2.20855C245.291 2.21272 245.36 2.21898 245.435 2.22732C245.427 2.36496 245.423 2.50261 245.423 2.64025C245.364 2.66945 245.322 2.68822 245.299 2.69656L244.714 2.80292C244.666 2.81543 244.601 2.83837 244.519 2.87174C244.522 2.94682 244.53 3.00104 244.542 3.03441C244.83 3.55579 245.1 3.98957 245.352 4.33577L245.925 5.20542L245.991 5.30553L246.327 4.86757L247.061 3.73514C247.238 3.45568 247.35 3.24713 247.397 3.10949C247.413 3.06778 247.421 3.02815 247.421 2.99062L247.403 2.89051C247.325 2.84463 247.262 2.81543 247.214 2.80292C247.187 2.79875 247.112 2.79458 246.99 2.79041C246.785 2.78624 246.601 2.76955 246.44 2.74035C246.428 2.65693 246.422 2.59437 246.422 2.55266C246.422 2.5318 246.426 2.48175 246.434 2.4025C246.434 2.37331 246.436 2.32534 246.44 2.2586C246.483 2.25443 246.523 2.244 246.558 2.22732C246.913 2.25235 247.646 2.26486 248.757 2.26486C248.899 2.26486 249.025 2.2586 249.136 2.24609C249.246 2.23358 249.313 2.22732 249.337 2.22732C249.376 2.22732 249.435 2.23358 249.514 2.24609C249.534 2.32951 249.543 2.40459 249.543 2.47132C249.543 2.51303 249.541 2.57977 249.538 2.67153L248.627 2.878C248.552 2.9072 248.469 2.96559 248.379 3.05318C248.288 3.1366 248.044 3.44943 247.646 3.99166L246.789 5.16788C246.69 5.3097 246.607 5.4244 246.54 5.51199C246.477 5.59541 246.42 5.67049 246.369 5.73723L246.458 5.86861C246.674 6.19812 246.895 6.52972 247.12 6.8634L248.296 8.70282C248.607 9.19082 248.838 9.49114 248.988 9.60375C249.094 9.683 249.364 9.76642 249.798 9.85401C249.809 9.93744 249.815 9.99166 249.815 10.0167C249.815 10.0375 249.806 10.1147 249.786 10.2482L249.804 10.3045L249.384 10.317C249.293 10.317 249.116 10.3066 248.852 10.2857L248.125 10.2357L248.048 10.2231C247.965 10.219 247.908 10.2169 247.876 10.2169C247.628 10.2169 247.334 10.2315 246.995 10.2607C246.657 10.2899 246.408 10.3045 246.251 10.3045C246.148 10.3045 245.981 10.3003 245.748 10.292V10.1293C245.748 10.0542 245.752 9.97706 245.76 9.89781C246.063 9.81439 246.381 9.74557 246.712 9.69135C246.755 9.66215 246.804 9.63295 246.86 9.60375L246.865 9.53493C246.865 9.49739 246.86 9.45985 246.848 9.42231C246.824 9.34307 246.769 9.22836 246.682 9.07821C246.509 8.78624 246.274 8.43379 245.979 8.02085L245.275 7.02607C245.185 7.13869 244.867 7.60167 244.323 8.41502C244.15 8.62357 244.004 8.8488 243.886 9.09072C243.807 9.24505 243.768 9.34307 243.768 9.38478L243.774 9.43483L243.85 9.54745C243.996 9.61835 244.178 9.69135 244.394 9.76642C244.611 9.83733 244.751 9.8853 244.814 9.91032L244.85 10.1981V10.2294L244.838 10.2982C244.723 10.3149 244.647 10.3233 244.607 10.3233C244.544 10.3233 244.355 10.3066 244.04 10.2732C243.933 10.2607 243.742 10.2523 243.466 10.2482L243.188 10.2419L241.882 10.3045C241.854 10.3045 241.762 10.3024 241.604 10.2982L241.58 10.0167C241.58 9.97915 241.586 9.92492 241.598 9.85401C241.665 9.84567 241.75 9.83525 241.852 9.82273C242.16 9.79354 242.396 9.73514 242.562 9.64755C242.629 9.61001 242.753 9.48279 242.934 9.2659C243.214 8.94056 243.466 8.62148 243.691 8.30865C243.821 8.12513 243.923 7.98749 243.998 7.89572C244.207 7.59124 244.52 7.15537 244.938 6.58811L244.589 6.03128C244.337 5.70177 244.142 5.42857 244.004 5.21168L243.655 4.67362C243.521 4.44004 243.433 4.29406 243.389 4.23566C243.2 3.97706 242.976 3.63087 242.715 3.19708C242.617 3.03858 242.491 2.92179 242.337 2.84672C242.183 2.77164 241.933 2.72367 241.586 2.70282V2.60897C241.586 2.56309 241.584 2.52972 241.58 2.50886C241.565 2.42961 241.557 2.37748 241.557 2.35245L241.569 2.20229Z" fill="white"/>
<path d="M253.226 10.2795C253.226 10.1502 253.238 10.0021 253.262 9.83525C253.297 9.8269 253.38 9.81439 253.51 9.79771L253.764 9.74765C254.013 9.70177 254.2 9.65172 254.326 9.5975L254.403 8.03337L254.379 6.76955L254.385 6.37539L254.403 4.62357L254.397 4.07925V3.81022C254.397 3.31387 254.363 2.98019 254.296 2.80918C254.273 2.79666 254.237 2.78832 254.19 2.78415C254.155 2.77998 254.117 2.77372 254.078 2.76538C253.896 2.73201 253.733 2.71116 253.587 2.70282L253.498 2.67779C253.388 2.66528 253.307 2.64859 253.256 2.62774C253.244 2.50678 253.238 2.42961 253.238 2.39625C253.238 2.34619 253.25 2.27737 253.274 2.18978C253.36 2.16893 253.453 2.1585 253.552 2.1585C253.788 2.1585 254.032 2.16893 254.285 2.18978C254.998 2.244 255.774 2.27112 256.614 2.27112L258.517 2.23983L259.918 2.25235C260.967 2.25235 261.708 2.22523 262.141 2.17101C262.311 2.15016 262.427 2.13973 262.49 2.13973C262.565 2.13973 262.687 2.14807 262.857 2.16475C262.853 2.3316 262.843 2.47967 262.827 2.60897C262.295 2.71741 261.944 2.82377 261.775 2.92805C261.743 3.01147 261.727 3.24713 261.727 3.63504V3.76017L261.733 4.07299L261.739 5.4682L261.733 6.56934L261.745 7.38895V8.27737L261.757 9.01564C261.757 9.16163 261.753 9.32847 261.745 9.51616C261.828 9.54119 261.905 9.56204 261.976 9.57873C262.346 9.66215 262.626 9.74765 262.815 9.83525L262.833 10.2732L262.555 10.2795C262.504 10.2795 262.435 10.2753 262.348 10.2669L261.905 10.2419C261.582 10.2044 261.065 10.1856 260.356 10.1856C260.123 10.1856 259.909 10.194 259.712 10.2106L259.091 10.2669C259.032 10.2669 258.965 10.2544 258.89 10.2294C258.894 10.0292 258.904 9.89364 258.919 9.82273L259.321 9.72263L259.552 9.67883C259.8 9.63712 259.962 9.60167 260.037 9.57247C260.088 9.36809 260.113 8.07091 260.113 5.68092L260.078 2.97185C259.952 2.95933 259.794 2.95099 259.605 2.94682L256.862 2.91554L256.809 2.90928C256.797 2.90511 256.783 2.90302 256.767 2.90302C256.74 2.90302 256.708 2.90511 256.673 2.90928L256.413 2.91554C256.196 2.91554 256.056 2.93014 255.993 2.95933C255.973 3.39312 255.964 3.77268 255.964 4.09802L255.981 7.32013V9.12826C255.981 9.35766 255.987 9.51199 255.999 9.59124C256.023 9.62044 256.092 9.64129 256.206 9.65381L256.478 9.6976C256.592 9.71429 256.702 9.73306 256.809 9.75391L257.028 9.80396C257.079 9.8123 257.122 9.83107 257.158 9.86027C257.169 9.9562 257.175 10.0209 257.175 10.0542C257.175 10.1084 257.168 10.1835 257.152 10.2795L256.785 10.2857C256.635 10.2857 256.425 10.2732 256.153 10.2482L255.709 10.2419L255.408 10.2106L254.787 10.2044C254.629 10.2044 254.448 10.219 254.243 10.2482L253.859 10.2795H253.226Z" fill="white"/>
<path d="M263.613 2.62148L263.607 2.14599L265.02 2.23983L265.653 2.23358H265.883C266.124 2.23358 266.5 2.21898 267.012 2.18978C267.304 2.16893 267.487 2.1585 267.562 2.1585C268.059 2.1585 268.433 2.1877 268.685 2.24609C269.072 2.32951 269.377 2.46298 269.602 2.64651C269.83 2.83003 270.025 3.09281 270.187 3.43483C270.353 3.77268 270.435 4.08759 270.435 4.37956C270.435 5.10532 270.219 5.69552 269.785 6.15016C269.355 6.60063 268.812 6.82586 268.153 6.82586C267.925 6.82586 267.706 6.79666 267.497 6.73827C267.292 6.67987 267.099 6.59228 266.918 6.4755C266.898 6.35454 266.888 6.1877 266.888 5.97497C266.983 5.98332 267.068 5.98957 267.142 5.99374C267.221 5.99791 267.29 6 267.349 6C267.684 6 267.966 5.90198 268.195 5.70594C268.498 5.45151 268.65 5.03858 268.65 4.46715C268.65 4.05839 268.583 3.72471 268.449 3.46611C268.319 3.20334 268.163 3.02607 267.982 2.93431C267.73 2.80918 267.446 2.74661 267.131 2.74661C266.835 2.74661 266.624 2.79249 266.498 2.88425C266.467 2.93848 266.443 2.99062 266.427 3.04067L266.469 5.98749L266.457 6.23775L266.474 6.50052C266.478 6.55892 266.48 6.64442 266.48 6.75704V7.27007L266.486 8.08968L266.474 9.06569C266.474 9.20334 266.486 9.38895 266.51 9.62252L267.686 9.77894C267.702 9.87904 267.71 9.95829 267.71 10.0167C267.71 10.0792 267.7 10.1668 267.68 10.2795C267.582 10.2961 267.507 10.3045 267.456 10.3045C267.334 10.3045 267.103 10.2899 266.764 10.2607C266.425 10.2273 266.039 10.2106 265.605 10.2106C265.117 10.2106 264.652 10.244 264.21 10.3107C264.135 10.3233 264.017 10.3337 263.856 10.342C263.84 10.2211 263.832 10.1314 263.832 10.073C263.832 10.0355 263.836 9.97706 263.844 9.89781L264.204 9.77268C264.453 9.69343 264.667 9.5975 264.849 9.48488C264.884 9.36392 264.902 9.25339 264.902 9.15329C264.902 9.11157 264.9 9.06361 264.896 9.00939C264.892 8.88008 264.89 8.69864 264.89 8.46507L264.872 6.70699L264.807 4.72367C264.78 3.78102 264.758 3.27216 264.742 3.19708C264.715 3.07612 264.667 2.98227 264.6 2.91554C264.533 2.84463 264.421 2.79458 264.263 2.76538C263.936 2.70699 263.72 2.65902 263.613 2.62148Z" fill="white"/>
<path d="M271.304 6.15016C271.304 5.63295 271.399 5.11366 271.588 4.59228C271.726 4.21689 271.919 3.87278 272.167 3.55996C272.416 3.24713 272.727 2.96976 273.101 2.72784C273.476 2.48175 273.858 2.30657 274.248 2.20229C274.638 2.09385 275.074 2.03962 275.555 2.03962C276.375 2.03962 277.086 2.20229 277.689 2.52763C278.292 2.85297 278.767 3.29301 279.114 3.84776C279.563 4.56934 279.788 5.32638 279.788 6.11887C279.788 7.29927 279.407 8.31074 278.647 9.15329C277.89 9.99583 276.836 10.4171 275.484 10.4171C275.149 10.4171 274.836 10.3942 274.544 10.3483C274.323 10.3149 274.13 10.269 273.965 10.2106C273.665 10.1064 273.498 10.0459 273.462 10.0292C273.032 9.77059 272.688 9.50574 272.428 9.23462C272.167 8.9635 271.947 8.65693 271.765 8.31491C271.667 8.12304 271.555 7.77685 271.428 7.27633C271.346 6.95516 271.304 6.57977 271.304 6.15016ZM275.33 2.65902C274.987 2.65902 274.684 2.74453 274.42 2.91554C274.156 3.08238 273.957 3.26799 273.823 3.47237C273.598 3.81856 273.438 4.19812 273.344 4.61105C273.249 5.01981 273.202 5.51825 273.202 6.10636C273.202 6.46507 273.216 6.72159 273.243 6.87591C273.251 6.92596 273.263 7.01147 273.279 7.13243C273.314 7.44108 273.356 7.66632 273.403 7.80813C273.572 8.33785 273.693 8.66528 273.764 8.79041C273.882 9.00313 274.057 9.21376 274.29 9.42231C274.408 9.53076 274.579 9.63087 274.804 9.72263C275.029 9.81022 275.253 9.85401 275.478 9.85401C275.904 9.85401 276.298 9.74974 276.66 9.54119C277.027 9.32847 277.32 8.96976 277.541 8.46507C277.762 7.96038 277.872 7.30344 277.872 6.49427C277.872 6.16058 277.85 5.70803 277.807 5.1366L277.778 5.01773C277.766 4.98436 277.746 4.89885 277.718 4.76121C277.573 4.07716 277.293 3.55579 276.879 3.19708C276.469 2.83837 275.953 2.65902 275.33 2.65902Z" fill="white"/>
<path d="M287.674 4.31074L287.425 4.32325C287.374 4.32325 287.307 4.31908 287.224 4.31074C287.189 4.23149 287.142 4.10845 287.083 3.94161L286.852 3.49739C286.753 3.30136 286.625 3.10949 286.468 2.92179C286.409 2.89677 286.283 2.88008 286.089 2.87174L284.736 2.79041L283.932 2.80292L283.583 2.80918C283.555 2.87174 283.541 2.95725 283.541 3.06569L283.547 6.01251L283.536 6.41919L283.553 6.78832L283.577 7.24505C283.577 7.36184 283.569 7.55579 283.553 7.8269C283.545 7.9562 283.541 8.06465 283.541 8.15224L283.565 8.66528L283.559 8.86549C283.571 9.05318 283.577 9.18874 283.577 9.27216C283.577 9.35141 283.591 9.42649 283.618 9.49739C283.65 9.51825 283.77 9.55579 283.979 9.61001L284.168 9.66632C284.282 9.69969 284.377 9.72054 284.452 9.72888C284.59 9.7414 284.678 9.76851 284.718 9.81022C284.757 9.84776 284.777 9.92701 284.777 10.048C284.777 10.2273 284.72 10.317 284.606 10.317C284.562 10.317 284.391 10.3024 284.091 10.2732L283.778 10.2607L283.701 10.2544C283.559 10.2461 283.439 10.2419 283.34 10.2419L282.714 10.2544H281.868L281.064 10.292L280.84 10.2982C280.8 10.2982 280.763 10.2878 280.727 10.2669C280.724 10.2002 280.722 10.1502 280.722 10.1168C280.722 10.0542 280.726 9.9708 280.733 9.86653C280.773 9.82065 280.869 9.77894 281.023 9.7414C281.106 9.72054 281.195 9.68926 281.289 9.64755L281.514 9.55996C281.691 9.49739 281.794 9.45151 281.821 9.42231C281.849 9.39312 281.874 9.28259 281.898 9.09072C281.922 8.89468 281.933 8.75495 281.933 8.67153L281.916 7.35141L281.904 6.55057L281.916 5.90615L281.91 5.28676C281.91 4.96142 281.898 4.51721 281.874 3.95412L281.886 3.1658C281.886 3.01564 281.866 2.92179 281.827 2.88425C281.792 2.84672 281.697 2.82795 281.543 2.82795C281.488 2.82795 281.329 2.80501 281.064 2.75912C280.804 2.70907 280.66 2.6757 280.633 2.65902C280.605 2.6048 280.592 2.48175 280.592 2.28989C280.592 2.24818 280.595 2.20438 280.603 2.1585L280.769 2.15224C280.844 2.15224 281.017 2.16267 281.289 2.18352L282.998 2.25235L285.327 2.23983L286.113 2.22106C286.641 2.22106 287.124 2.25235 287.561 2.31491C287.632 2.38582 287.668 2.49844 287.668 2.65276L287.674 4.31074Z" fill="white"/>
<path d="M287.969 2.62148L287.963 2.14599L289.376 2.23983L290.009 2.23358H290.239C290.48 2.23358 290.856 2.21898 291.368 2.18978C291.66 2.16893 291.843 2.1585 291.918 2.1585C292.415 2.1585 292.789 2.1877 293.042 2.24609C293.428 2.32951 293.733 2.46298 293.958 2.64651C294.186 2.83003 294.381 3.09281 294.543 3.43483C294.709 3.77268 294.791 4.08759 294.791 4.37956C294.791 5.10532 294.575 5.69552 294.141 6.15016C293.711 6.60063 293.168 6.82586 292.509 6.82586C292.281 6.82586 292.062 6.79666 291.853 6.73827C291.648 6.67987 291.455 6.59228 291.274 6.4755C291.254 6.35454 291.244 6.1877 291.244 5.97497C291.339 5.98332 291.424 5.98957 291.499 5.99374C291.577 5.99791 291.646 6 291.705 6C292.04 6 292.322 5.90198 292.551 5.70594C292.854 5.45151 293.006 5.03858 293.006 4.46715C293.006 4.05839 292.939 3.72471 292.805 3.46611C292.675 3.20334 292.519 3.02607 292.338 2.93431C292.086 2.80918 291.802 2.74661 291.487 2.74661C291.191 2.74661 290.98 2.79249 290.854 2.88425C290.823 2.93848 290.799 2.99062 290.783 3.04067L290.825 5.98749L290.813 6.23775L290.831 6.50052C290.834 6.55892 290.836 6.64442 290.836 6.75704V7.27007L290.842 8.08968L290.831 9.06569C290.831 9.20334 290.842 9.38895 290.866 9.62252L292.042 9.77894C292.058 9.87904 292.066 9.95829 292.066 10.0167C292.066 10.0792 292.056 10.1668 292.037 10.2795C291.938 10.2961 291.863 10.3045 291.812 10.3045C291.69 10.3045 291.459 10.2899 291.12 10.2607C290.781 10.2273 290.395 10.2106 289.962 10.2106C289.473 10.2106 289.008 10.244 288.566 10.3107C288.491 10.3233 288.373 10.3337 288.212 10.342C288.196 10.2211 288.188 10.1314 288.188 10.073C288.188 10.0355 288.192 9.97706 288.2 9.89781L288.56 9.77268C288.809 9.69343 289.024 9.5975 289.205 9.48488C289.24 9.36392 289.258 9.25339 289.258 9.15329C289.258 9.11157 289.256 9.06361 289.252 9.00939C289.248 8.88008 289.246 8.69864 289.246 8.46507L289.228 6.70699L289.163 4.72367C289.136 3.78102 289.114 3.27216 289.098 3.19708C289.071 3.07612 289.024 2.98227 288.957 2.91554C288.89 2.84463 288.777 2.79458 288.62 2.76538C288.292 2.70699 288.076 2.65902 287.969 2.62148Z" fill="white"/>
<path d="M294.975 10.3045L294.986 9.87904C295.061 9.85401 295.193 9.82273 295.383 9.78519C295.686 9.72263 295.869 9.66632 295.932 9.61627C295.999 9.56621 296.08 9.44526 296.175 9.25339L297.369 5.94369L298.77 2.05214C298.9 2.05631 299.024 2.05839 299.142 2.05839H299.408L299.462 2.17101L300.49 4.7487C300.723 5.2951 300.932 5.8269 301.117 6.34411C301.302 6.85714 301.462 7.27633 301.596 7.60167C301.674 7.79771 301.783 8.09176 301.921 8.48384C301.992 8.69656 302.1 8.9635 302.246 9.28467C302.325 9.45985 302.384 9.56204 302.423 9.59124C302.494 9.65381 302.609 9.69552 302.766 9.71637C302.928 9.73723 303.101 9.78519 303.286 9.86027C303.306 9.99791 303.316 10.1001 303.316 10.1668C303.316 10.196 303.314 10.2419 303.31 10.3045C303.018 10.3045 302.697 10.2899 302.346 10.2607C301.996 10.2315 301.68 10.2169 301.401 10.2169C301.089 10.2169 300.865 10.2211 300.727 10.2294L299.722 10.2857L299.432 10.2982C299.432 10.1522 299.438 10.0125 299.45 9.87904L300.106 9.72888C300.303 9.67466 300.417 9.63295 300.449 9.60375C300.488 9.56204 300.508 9.51408 300.508 9.45985C300.508 9.40563 300.498 9.34932 300.478 9.29093L300.242 8.67779L299.775 7.45151L297.517 7.44526C297.434 7.64546 297.262 8.13556 297.002 8.91554C296.927 9.1366 296.89 9.28676 296.89 9.36601C296.89 9.47445 296.918 9.55162 296.973 9.5975C297.063 9.67675 297.237 9.73306 297.493 9.76642C297.528 9.77477 297.668 9.79771 297.913 9.83525C297.917 9.9854 297.919 10.0897 297.919 10.1481C297.919 10.194 297.915 10.2419 297.907 10.292C297.662 10.292 297.079 10.2565 296.157 10.1856L295.915 10.2294C295.623 10.2795 295.345 10.3045 295.081 10.3045H294.975ZM297.753 6.78832C298.675 6.80083 299.219 6.80709 299.385 6.80709L299.533 6.80083C299.414 6.42961 299.261 5.99791 299.071 5.50574C298.882 5.00938 298.729 4.63191 298.61 4.37331L297.753 6.78832Z" fill="white"/>
<path d="M303.316 10.2982L303.334 9.87278C303.826 9.80605 304.14 9.69969 304.274 9.5537C304.36 9.4536 304.427 9.19291 304.475 8.77164L304.552 6.54432L304.64 4.27946C304.648 4.14181 304.652 4.05839 304.652 4.0292C304.652 3.44108 304.619 3.10115 304.552 3.00938C304.488 2.91762 304.236 2.82795 303.795 2.74035C303.684 2.71533 303.598 2.69447 303.535 2.67779C303.527 2.57351 303.523 2.48592 303.523 2.41502V2.22106C303.669 2.20855 303.84 2.20229 304.037 2.20229L305.769 2.26486C305.809 2.26903 305.864 2.2732 305.935 2.27737L306.207 2.28989C306.274 2.37331 306.341 2.48384 306.408 2.62148C306.554 2.92596 306.747 3.37226 306.987 3.96038L307.052 4.1293L307.974 6.25026C307.994 6.30031 308.026 6.37331 308.069 6.46924C308.128 6.6194 308.189 6.7633 308.252 6.90094C308.315 7.03441 308.38 7.18248 308.447 7.34515C308.518 7.50782 308.585 7.65172 308.648 7.77685C308.703 7.67675 308.757 7.56622 308.808 7.44526C308.966 7.06152 309.119 6.70907 309.269 6.3879C309.529 5.82065 309.882 4.95308 310.327 3.78519C310.398 3.5975 310.514 3.31595 310.676 2.94056C310.842 2.561 310.932 2.36079 310.948 2.33994C310.983 2.30657 311.054 2.28989 311.161 2.28989C311.2 2.28989 311.261 2.2878 311.344 2.28363C311.549 2.27112 311.795 2.26069 312.083 2.25235C312.497 2.24818 312.828 2.23566 313.076 2.21481C313.328 2.18978 313.47 2.17727 313.502 2.17727C313.541 2.17727 313.589 2.18144 313.644 2.18978C313.648 2.24818 313.65 2.29406 313.65 2.32742L313.638 2.51512C313.638 2.55266 313.636 2.60897 313.632 2.68405C313.261 2.74244 312.96 2.83003 312.727 2.94682C312.566 3.03024 312.485 3.13452 312.485 3.25965V3.35349L312.585 5.26799C312.597 5.44317 312.629 6.31283 312.68 7.87696C312.692 8.22732 312.717 8.67153 312.757 9.20959C312.765 9.27633 312.769 9.32847 312.769 9.36601C312.773 9.46611 312.792 9.53076 312.828 9.55996C312.867 9.58916 313.222 9.71011 313.892 9.92284C313.896 9.98957 313.898 10.0396 313.898 10.073C313.898 10.1606 313.896 10.2482 313.892 10.3358C313.786 10.3358 313.518 10.3128 313.088 10.2669C312.658 10.2169 312.256 10.1919 311.882 10.1919C311.311 10.1919 310.755 10.2169 310.215 10.2669C310.144 10.2753 310.075 10.2815 310.008 10.2857L310.02 9.85401C310.181 9.78728 310.396 9.73097 310.664 9.68509C310.853 9.65172 310.974 9.59541 311.025 9.51616C311.076 9.43691 311.102 9.21585 311.102 8.85297C311.102 8.71533 311.1 8.59437 311.096 8.49009C311.076 8.05214 311.064 7.44317 311.06 6.66319L310.96 4.45464C310.948 4.14181 310.934 3.92492 310.918 3.80396L309.446 7.38269C309.411 7.46611 309.358 7.58707 309.287 7.74557C309.196 7.94995 309.135 8.08968 309.104 8.16475C308.8 8.93639 308.589 9.52659 308.471 9.93535C308.439 10.0396 308.392 10.1752 308.329 10.342L307.874 10.3358L307.555 9.37852C307.46 9.12826 307.298 8.7487 307.07 8.23983C306.936 7.94369 306.831 7.70386 306.757 7.52033C306.721 7.44526 306.695 7.38895 306.68 7.35141L306.609 7.19499C306.605 7.16997 306.599 7.14911 306.591 7.13243L305.71 5.12409L305.172 3.90407L305.125 6.8634L305.084 8.78415C305.084 9.10115 305.139 9.32847 305.249 9.46611C305.363 9.59958 305.606 9.71429 305.976 9.81022L306.26 9.8853V10.342C306.031 10.3379 305.785 10.3212 305.521 10.292C305.261 10.2586 304.914 10.2419 304.481 10.2419C304.39 10.2419 304.002 10.2607 303.316 10.2982Z" fill="white"/>
<path d="M314.418 10.2982L314.436 9.87278C314.928 9.80605 315.242 9.69969 315.376 9.5537C315.462 9.4536 315.53 9.19291 315.577 8.77164L315.654 6.54432L315.742 4.27946C315.75 4.14181 315.754 4.05839 315.754 4.0292C315.754 3.44108 315.721 3.10115 315.654 3.00938C315.591 2.91762 315.338 2.82795 314.897 2.74035C314.787 2.71533 314.7 2.69447 314.637 2.67779C314.629 2.57351 314.625 2.48592 314.625 2.41502V2.22106C314.771 2.20855 314.942 2.20229 315.139 2.20229L316.871 2.26486C316.911 2.26903 316.966 2.2732 317.037 2.27737L317.309 2.28989C317.376 2.37331 317.443 2.48384 317.51 2.62148C317.656 2.92596 317.849 3.37226 318.089 3.96038L318.154 4.1293L319.077 6.25026C319.096 6.30031 319.128 6.37331 319.171 6.46924C319.23 6.6194 319.291 6.7633 319.354 6.90094C319.417 7.03441 319.482 7.18248 319.549 7.34515C319.62 7.50782 319.687 7.65172 319.75 7.77685C319.806 7.67675 319.859 7.56622 319.91 7.44526C320.068 7.06152 320.221 6.70907 320.371 6.3879C320.631 5.82065 320.984 4.95308 321.429 3.78519C321.5 3.5975 321.617 3.31595 321.778 2.94056C321.944 2.561 322.034 2.36079 322.05 2.33994C322.086 2.30657 322.156 2.28989 322.263 2.28989C322.302 2.28989 322.363 2.2878 322.446 2.28363C322.651 2.27112 322.897 2.26069 323.185 2.25235C323.599 2.24818 323.93 2.23566 324.178 2.21481C324.431 2.18978 324.572 2.17727 324.604 2.17727C324.643 2.17727 324.691 2.18144 324.746 2.18978C324.75 2.24818 324.752 2.29406 324.752 2.32742L324.74 2.51512C324.74 2.55266 324.738 2.60897 324.734 2.68405C324.363 2.74244 324.062 2.83003 323.829 2.94682C323.668 3.03024 323.587 3.13452 323.587 3.25965V3.35349L323.688 5.26799C323.699 5.44317 323.731 6.31283 323.782 7.87696C323.794 8.22732 323.82 8.67153 323.859 9.20959C323.867 9.27633 323.871 9.32847 323.871 9.36601C323.875 9.46611 323.895 9.53076 323.93 9.55996C323.969 9.58916 324.324 9.71011 324.994 9.92284C324.998 9.98957 325 10.0396 325 10.073C325 10.1606 324.998 10.2482 324.994 10.3358C324.888 10.3358 324.62 10.3128 324.19 10.2669C323.76 10.2169 323.359 10.1919 322.984 10.1919C322.413 10.1919 321.857 10.2169 321.317 10.2669C321.246 10.2753 321.177 10.2815 321.11 10.2857L321.122 9.85401C321.284 9.78728 321.498 9.73097 321.766 9.68509C321.955 9.65172 322.076 9.59541 322.127 9.51616C322.178 9.43691 322.204 9.21585 322.204 8.85297C322.204 8.71533 322.202 8.59437 322.198 8.49009C322.178 8.05214 322.166 7.44317 322.162 6.66319L322.062 4.45464C322.05 4.14181 322.036 3.92492 322.021 3.80396L320.548 7.38269C320.513 7.46611 320.46 7.58707 320.389 7.74557C320.298 7.94995 320.237 8.08968 320.206 8.16475C319.902 8.93639 319.691 9.52659 319.573 9.93535C319.542 10.0396 319.494 10.1752 319.431 10.342L318.976 10.3358L318.657 9.37852C318.562 9.12826 318.401 8.7487 318.172 8.23983C318.038 7.94369 317.934 7.70386 317.859 7.52033C317.823 7.44526 317.798 7.38895 317.782 7.35141L317.711 7.19499C317.707 7.16997 317.701 7.14911 317.693 7.13243L316.812 5.12409L316.274 3.90407L316.227 6.8634L316.186 8.78415C316.186 9.10115 316.241 9.32847 316.351 9.46611C316.466 9.59958 316.708 9.71429 317.078 9.81022L317.362 9.8853V10.342C317.134 10.3379 316.887 10.3212 316.623 10.292C316.363 10.2586 316.016 10.2419 315.583 10.2419C315.492 10.2419 315.104 10.2607 314.418 10.2982Z" fill="white"/>
</svg>
